<?xml version="1.0" encoding="UTF-8" standalone="no"?>
<!DOCTYPE svg PUBLIC "-//W3C//DTD SVG 1.1//EN" "http://www.w3.org/Graphics/SVG/1.1/DTD/svg11.dtd">
<svg width="100%" height="100%" viewBox="0 0 1400 980" version="1.1" xmlns="http://www.w3.org/2000/svg" xmlns:xlink="http://www.w3.org/1999/xlink" xml:space="preserve" xmlns:serif="http://www.serif.com/" style="fill-rule:evenodd;clip-rule:evenodd;stroke-linejoin:round;stroke-miterlimit:2;">
    <g id="background">
    </g>
    <g id="vessel__x26__badges">
        <g id="vessel" transform="matrix(0.162432,0,0,0.163299,1222.33,386.338)">
            <path d="M509.5,894C509.2,893.6 508.8,893.3 508.5,893C508.8,893 509.2,893.1 509.5,893.2L509.5,894ZM511.8,893.1L509.4,893.1C510.2,893.3 511,893.5 511.8,894L511.8,893.1ZM796.3,184.5C796,184.2 795.7,183.9 795.4,183.7C795.7,184 796,184.3 796.3,184.5ZM804.9,120.8C794.2,119.4 802.1,128.2 795.8,128.1C772.2,121.7 760.5,113.6 742.6,120.4C732.3,132.7 738.4,129 719.3,130.3C702.6,127.5 689.5,128 677.1,122.4C676.2,121.1 673,117.8 673,116.1C654.5,110.7 634.6,113.5 617.2,105.8C615.3,103.9 617.8,100.2 614.8,98.7C593.1,97.4 569.9,97.4 549.8,101.9L546.8,170.6C561.6,174.7 572.8,187.8 589.3,187.6C601.3,172.6 610.6,155.4 617.9,139.1L621.8,137.4C631.5,142.1 641.1,146 652.1,147.5C655.7,143.4 646.7,139.1 652.1,134.4C670.8,132.3 683.9,143.8 699.1,149.9C701.9,147.8 700,143 703.8,142.2C724.4,145.8 735.4,172.5 756.4,175.5C759.2,173.8 757.9,168.2 762.4,169.3C771.2,164.8 773.3,188.2 780.2,173.2C787,171.2 791.6,173.6 793.3,178.6C793.1,179.2 793.1,179.8 793.2,180.3C791,176.7 788,172.8 782.6,174.8C780.7,178.2 777.7,182.3 773.4,179.5C770.2,176.5 767.8,170.5 762.5,170.9C756.7,174.5 761.4,183.4 755.6,186.4C732.4,188.1 722.3,156.1 699.1,160.2L695.2,167.9C684.5,160 672.2,156.1 658.9,154.8C656.8,159.5 657.4,166 652,168.5C641.9,167.2 633.8,161.6 624.1,159.3C625.2,190.6 627.5,225.2 631,254.4C634.9,256.1 634,260 631.9,263L634.3,290C645.5,296.7 654.7,308.2 669.1,307.6L671.5,310C668.1,327.8 659.5,343.3 659.9,362.6C657.8,366.9 658,372.9 653.7,375.7C628.6,362 602.8,349.5 574.1,344.8L575.6,363.5C611,369.5 646.2,375.7 681.4,382L686.1,385.9C685.5,416.2 669.4,441.1 669.8,470.9C668.8,473.8 668.2,477 667.6,480.1C666.4,486.8 665.3,493.5 659.9,497.9C674.9,504.6 693.2,503.3 707.8,511C710.2,518.1 699.9,518.7 704.6,525.8C744.5,588.9 725.4,678.6 686.1,736C649.2,788.8 604.1,830 549.4,861.2C551.3,861.6 552.6,862.9 553.3,865.1C551.8,870.9 558.2,866.6 560.2,869C560.8,871.6 562.6,873.7 564.1,875.9C571,874.8 563.9,869.2 567.3,866C569.9,866.6 572.9,864.1 575,868.1C575.2,869.8 574.8,871.1 573.3,872C578.2,874.4 574.2,877.4 576.5,880.6C582.9,884.2 583.4,869.2 590.5,876.7C587.9,884.9 597.4,883.1 600.4,887.4C632.6,888 662,886.5 695.5,885.9L695.5,889.8C666.1,887.4 632.2,891.1 601.3,889.8C600.2,893 597.4,890.7 595.9,889.8C595.9,884.2 584.3,885.5 588.2,878.2L587.3,877.6C583,880 580.9,886.2 575.1,883C572.3,880 574.2,875.1 569.5,872.9C568,874 569.5,876.3 568,877.6C562.2,881 559.6,874 557.3,870.5C555.2,873.3 553.2,870.7 551.1,869.9C550.9,867.5 551.7,864.7 550.2,862.8C548.7,871.6 545.3,879.8 538,886C545.5,887.1 545.3,895.2 547.2,900.8C546.8,902.3 545.3,903.6 543.3,902.9L541.8,901.4C540.5,903.3 541.6,909.1 537.9,906.8C536.4,904.9 534.3,904.2 532.5,902.9C530.8,906.3 532.7,911.7 527.8,913C524.6,913.6 523.1,909.4 520.9,906.8C520.7,904.2 521.3,901.4 518.5,899.9C514,899.9 510.8,902.7 506.9,903.8C507.1,899.5 512.1,899.7 514.6,897.6C518.5,896.3 521.5,899.3 523,902.3C520.2,905.9 524.7,909.6 526.9,910.7C531.4,909 528.4,905.5 529.3,901.5C532.1,900 536,900.9 537.9,903.9C539.4,901.1 535.3,897.9 537.9,894.7C542.4,893 540.3,899 543.3,899.2C546.9,893.6 540.3,890.2 537.1,888.5C530.7,886.1 522.9,887 517.1,890C520.1,884.2 528.9,885.5 534.7,883.1L540.9,876.9C537.9,873.5 536.2,880.3 533.2,876.9C529.6,880.1 528.3,880.5 523.1,879.9C521.8,877.8 519.9,873.9 517.1,875.4C510.2,883.3 498.6,884.8 494.6,894.7C498.6,894.9 504.6,890.1 509,893.7C503.4,893.2 497.2,897.6 492.2,900.9C491.8,902.4 490.3,903.7 488.3,903C490.9,900 487.4,897.4 485.3,895.3C483.2,895.1 481.4,897.7 480.6,899.2C479.1,897.1 478,891.9 474.6,893.8C473.7,894.9 472.5,895.1 471.4,895.3C469.7,892.5 474.2,892.5 476.1,891.4C480.8,888.4 480,898.3 483.8,893.1C486.6,888.4 478.4,884.7 482.3,880.6C480.8,880.2 479.5,878.7 478.4,877.6C477.3,878.2 476.7,879.5 475.2,879.1L469.8,873.7C468.5,874.6 469.4,877.8 466.8,876.7C466.2,868.8 456.3,866.6 450.5,862.7L442.8,863.6C440.7,864.9 443.2,866.2 443.7,867.5C444.8,867.7 445.2,866.4 445.8,866C448.2,869.9 454.2,867.5 454.4,872.9C452.5,875.5 448.2,874.6 445.8,873.8C445.6,869.9 441.5,872.5 439.8,870.6C435.5,863.7 427.6,868.2 422,869.1L420.5,870.6C424.8,875.3 439.8,870 435.1,881.5L432.7,883.6C425,884.7 419.6,875.2 411.9,880.6C412.3,884.5 419.8,882.1 418.1,886C412.3,889.9 403.1,888.8 397.3,886C396.4,889 394.5,890.7 391.7,892.2C382.3,886.6 373,903.6 367,892.2C356.9,895.2 348.1,885.5 339.3,894.6C319.5,897.2 297.2,897.4 280.5,888.4C265.7,887.8 250.9,895.9 236.5,893.8C238.2,888.9 243.2,893.4 246.6,893.2L252,891.5C243.6,890 236.3,881.6 227.3,887C220.4,888.7 215.9,884.4 211,881.6C174.3,882 143.8,883.7 106.7,883.1L106.7,879.2C140,880.7 173.2,879.4 207.2,877.7C210.2,873.6 205.3,869.1 203.3,865.2C197.3,860 189.6,854.3 189.3,845.9C191.9,830 209,820.4 216.3,806.4L221,798C206.4,770.5 179.1,756.4 155.3,740C149.9,739.4 142.8,741.3 139,738.5L139,736.1C147.8,735.2 161.3,736.5 168.4,726.9C148.6,690.4 128,654.1 119,613.1C117.3,611.4 111.9,614 113.4,609.2L115.1,607.7C138.9,610.7 161.5,617.1 185.3,620.2C185.5,616.3 184.2,611.2 181.4,607.7L167.4,605.3L167.4,603.8C189.7,601.2 207.3,579.1 217.6,560.7L217.6,512.6C215.7,510.9 210.3,513.5 210.7,508.7C212,503.5 216.9,502.3 221.4,504.2C222.9,505.9 225.5,504 227,505.7C224.6,497.3 236,497.3 240.1,491.7C243.9,488.3 247.6,484.3 251,480.1C258.4,471.1 265,460.8 270.1,450.7L275.5,400.5C272.7,397.9 271.2,398.8 267.8,397.5L267.8,395.1C285.4,394.5 304.1,410.1 319.8,396C329.5,387.4 342.8,378.8 343,365.7C339.4,356.5 327.8,348.5 331.4,338.7C342.8,338.9 356.1,343 368.3,344.9L370,343.4C369.1,336.1 368.3,331.4 367.6,324.1C366.1,323.5 364.8,322.4 362.9,322.6C364.2,320.9 363.1,316.4 366.8,314.9L379.3,316.4L407.9,258.4C407.7,252.6 406.6,245.7 402.5,242.9C402.5,239 404.6,236 408.7,236L445.6,151C450.3,149.1 450.3,153.6 451.2,156.4C449.5,160 451.4,163.7 455.7,163.3C463.4,164.6 471.2,170.6 478.9,167.2C478.5,163.3 479.3,160.1 481.3,157.1C483,157.5 485.4,156.5 486.7,158C507.3,122.1 527.3,86.9 544.7,50.7L550.1,47.5C606.2,41 637.9,52.8 651.6,57.5C656.1,58.5 647.7,68.5 643.9,72.5C661.9,77.7 675.9,78.4 695,86.9C697.6,88.3 700,88 698.7,92.2L692.4,103.1C689.2,104.8 721.7,112.6 740.4,113C746.9,112.4 748,105.4 758.2,107.5C775.5,109 777.2,116.8 793.8,122.1C798.1,123.4 794.9,118.3 799.2,118.1C800.8,117.4 804.9,120.8 804.9,120.8ZM702,154.5C723,156.6 734,183.3 756.1,183.1L756.1,178.4C749.7,179.5 745.8,174.1 740.6,172.2C727.9,164.9 718.9,149.2 705,145.2C701.8,146.5 701.8,150.8 702,154.5ZM693.4,94.4C691.1,95.9 688.3,96.5 686.5,98.7C686.8,100.1 687.4,101.6 688.6,102.6C690.2,99.9 691.5,97.1 693.4,94.4ZM488.6,157.5C493.3,161.1 497.6,165.4 502.6,168.2C506.5,170.8 509.7,167.3 512.7,165.2C522.6,128.5 535.9,91.6 545.1,56.1L488.6,157.5ZM538.9,191.4L542.8,196.1L543.7,191.4L538.9,191.4ZM543.6,186.9L543.6,176C544,179.9 539.7,185.2 538.9,187.6L543.6,186.9ZM549.6,271L557.3,271C554.8,271 551.1,267.6 549.6,271ZM558.2,266.5C557.3,262 556.7,257.7 555.8,253.2L552.8,262.6C554.5,264.2 556.1,266.1 558.2,266.5ZM548.1,275.7L545.1,285.8L562.1,287.9L562.1,285.8C563.3,276.6 555,276.2 548.1,275.7ZM611.4,257.9L609.9,274.2C613.5,275.1 616.6,280 620,279.6C622.8,273.4 627.1,266.7 626.9,260.3L611.4,257.9ZM626.9,254.1C625,247.7 617.5,243.6 613.8,237.8L612.3,251.1L626.9,254.1ZM613.8,293.6L617.7,283.5C615.6,280.5 612.5,279.9 610,278.1C607.8,283.7 610.1,289.3 613.8,293.6ZM608.4,290.3L607.5,296.5L612.2,296.5L608.4,290.3ZM603.1,226.2L597.7,248.7L608.4,250.2C608,242.3 614.7,230.9 603.1,226.2ZM596,254.9L593.9,263.3C597.8,266.7 602.1,269.1 606.1,271.9L607.6,257.1L596,254.9ZM598.3,271L605.4,281.9L605.4,274.8L598.3,271ZM592.1,269.5C591.9,277.9 586.7,285.4 587.6,293.5L603.7,295.6C610.4,283.7 596,277.7 592.1,269.5ZM587.6,246.3L590.6,233.8L583.7,245.4L587.6,246.3ZM591.5,224.7C581.6,230.5 569.6,236.1 562.1,241.7L579.9,244.9C583.7,238.2 590.4,230.9 591.5,224.7ZM559.1,247.8L563,270.3L566.9,269.4C573.6,265.1 589.4,266.8 585.4,253.1L559.1,247.8ZM580.5,267.2C575.6,272.8 560.1,269.6 564.4,280.3C565,286.5 568,291.7 575.1,291.2L582.2,267.2L580.5,267.2ZM450,248.7L450.9,251.1L491,258.8C489.5,256.2 486.9,256 484.8,257.1C473.8,253 461.8,251.1 450,248.7ZM452.4,233.2L450.9,233.2L450,240.1L452.4,233.2ZM453.9,241C459.9,240.8 463.8,235.2 469.4,233.9L469.4,231.8L468.5,230.1C464.2,231.2 458.6,231.2 455.4,233.3C453,235 454.3,238.2 453.9,241ZM477.9,233.9L474,235.6C474.9,240.8 474.9,246.3 477,251.1C479.4,250.7 481.3,251.3 483.2,251.7L477.9,233.9ZM483.3,226.9L484.8,226.2C484.2,226.2 483.7,226.5 483.3,226.9L480.1,228.5C481.7,229.1 482.4,227.8 483.3,226.9ZM477.1,228.5L473.2,228.5L473.2,231.7L474.7,231.7C475.5,230.7 477.9,230.7 477.1,228.5ZM475.5,224.7L467.8,196.1L472.3,224.7L475.5,224.7ZM464.6,202.3L456.9,227.8C460.8,226.9 464.6,226.1 468.5,225.4L464.6,202.3ZM469.3,237.7L454.7,245.4L471.7,249.3C472.1,245 471.3,240.5 469.3,237.7ZM494,226.2L481.8,232.4C483.5,238.4 484.2,247 487.2,250.2L494,226.2ZM496.4,220.1L501.8,199.1L470.9,193.1L478.6,224L496.4,220.1ZM505,183C504.1,183.4 503.7,184.7 502.6,184.5C494,172 482.4,184.5 473.2,186.9C481.8,188.6 490.6,189.7 498.7,192.3C509.6,196.4 505.1,181.1 509.4,176C506.4,176.4 501.7,171.9 500.2,176.9C502.8,177.9 504.1,180.4 505,183ZM533.5,251.7C529.6,247.6 525.6,244.2 521,241.6C520.8,248.3 527.9,254.3 531.9,259.4C533.5,257.3 531.8,253.8 533.5,251.7ZM517.2,247.2L510.3,257.1C515.2,256.9 521.7,261 526.4,259.5L517.2,247.2ZM518.1,239.5C517,237.4 514.9,235 512.7,233.9L517.2,240.1L518.1,239.5ZM503.2,229.4L496.3,254.1L504.9,256.5C509.6,252.4 512.6,247.9 514.1,242.5L503.2,229.4ZM495.5,260.3C513.1,262.4 529.2,268 546.6,270.4L546.6,268.7C542.1,267.2 536.7,265.5 532,267.2C521.1,262.7 508,260.3 495.5,258L495.5,260.3ZM548.1,264.2C544.5,259.9 540.2,256.7 535.9,254.1L535.9,262.7L548.1,264.2ZM540.4,216.3C535,223.6 527.9,230.5 524.3,238.6L534.2,247.2L540.4,216.3ZM541.2,210.1L541.2,206.9L511.8,201.5L505.6,223.2L521.1,235.7C528.6,227.4 533.7,218.2 541.2,210.1ZM534.2,193.1C528,198.5 521.7,189.5 514.9,189.2C514.7,191.1 512.5,194.1 514.3,195.2L540.5,199.9C537.6,198 537.2,195 534.2,193.1ZM530.3,189.9C527.9,184.7 523.6,180.7 518.1,179.2L516.6,184.6C521.1,186.2 525.8,190.5 530.3,189.9ZM482.4,163.7C483.5,162.8 483.7,161.8 483.9,160.5L482.4,160.5L482.4,163.7ZM482.4,168.2C487.3,168.8 494,177 498.7,171.4C494.6,169.5 491.4,162.8 486.2,162.2L482.4,168.2ZM477.9,180.6C481.3,179.1 485.4,178.2 488.6,175.9C484.6,171 477.7,174.8 477.9,180.6ZM450.9,175.3L472.4,177.7C474.5,176 475.8,173.8 476.3,171.5C467.7,170.6 460,167.4 451.6,165.3L450.9,175.3ZM450,229.4L452.4,229.4C458.4,218.5 462.9,204.5 463.1,191.4C454.9,183.9 472.1,186.7 470.8,181.5L451.5,179.1C450,194.4 449.8,212 450,229.4ZM421.5,249.3C419.6,254 423.9,258.1 424.5,262.6C425.4,283.6 419.3,303 403.7,315.8C434.4,310.9 467.5,311.7 498.8,314.9L494.1,286.3C492.2,284.8 489.2,286.3 487.2,284.8C485.7,281.6 486.1,276.6 490.2,275.6L541.3,284.8C543.2,281.8 545.2,277.3 544.3,274.7C504.1,264.8 462,258.8 421.5,249.3ZM509.5,316.7C510.4,310.9 511.4,303.4 508.9,298C506.1,294.1 502.9,287.5 498,287.3L502.7,315.9C505.4,315 506.9,317.4 509.5,316.7ZM508,320.6L503.3,320.6L505.7,330.5C507.5,327.7 508.4,323.4 508,320.6ZM464,347.7L458.6,346.8L458.6,347.7L464,348.3L464,347.7ZM460.7,353.7C462.6,361 463.3,369.4 466.3,375.4C468.2,368.7 471,361.4 470.2,354.6L460.7,353.7ZM503.2,350.7L503.2,343C499.8,341.9 497.6,344.7 494.8,345.4L382,326C392.9,360.8 361.6,387.2 338,410.2C368.1,417.9 400.9,423.1 432.2,429.5C445.1,414.9 455.4,399.2 463.1,382.5L456.2,353.1C452.8,353.3 451.5,348.6 451.5,345.4C453,344.1 454.3,342 456.2,341.5L503.2,350.7ZM428.3,443.4L421.4,446.4L427.6,446.4C427,445.1 428.5,444.7 428.3,443.4ZM378.1,349.8L372.7,349.2L372.7,349.8L378.1,349.8ZM372.7,354.5L373.6,361.4C374.7,359.5 376.2,357.5 376.6,355.4L372.7,354.5ZM380.4,344.4L380.4,336.7C378.3,332.2 379.5,321.2 370.3,324.5L371.8,343.8C374.9,344 377.7,346.6 380.4,344.4ZM496.4,336.1C499.2,335.5 500.9,337.8 502.6,334.4L501.7,333.8C498.7,329.1 502.8,318.3 494.8,319C495.3,324.7 493.6,331.3 496.4,336.1ZM538.9,290.3L538.9,288.8L491.7,280.2C506.2,284.8 523.2,287.1 538.9,290.3ZM488.6,323.6L486.2,323.6L486.2,326.6C490.6,327.9 486.3,324.9 488.6,323.6ZM486.3,333.7L487.8,333.7L487.8,331.3C487.1,331.3 488,332.8 486.3,333.7ZM483.3,323.6C480.5,307.3 474.1,327 474.1,332.2L482.5,332.8C482.6,328.8 481.8,327.3 483.3,323.6ZM456.9,329C458.8,329.9 461.4,329.2 463.1,330.5L467.8,316.8C458.8,313.7 459.7,324.5 456.9,329ZM457.7,316.7C442.2,315.2 422.3,317.1 405.1,319.7L445.2,327.4C455.8,333.5 453.2,320.8 457.7,316.7ZM412.9,264.2C414.6,260.8 415.7,256 415.3,252.6C409.9,254.1 412.4,262 412.9,264.2ZM423.8,243.3L422.9,244.8L446.1,250.2L446.1,247.8L423.8,243.3ZM447,243.3L447,233.9C441.4,236.5 432,234.5 429.8,241C436,240.8 441.4,244.4 447,243.3ZM447.6,175.3L448.5,175.3L448.5,172.1L447.6,172.1L447.6,175.3ZM433,233.2L447,230L447.6,179.8L446.1,179.8C440.1,197 436.3,216.5 433,233.2ZM412.2,237.1C414.8,235 420.4,238.4 421.4,233.9L438.4,172.1C429.6,193.7 418.7,215.4 412.2,237.1ZM407.5,241.6L419.1,244C419.1,243.1 419.3,242.3 418.2,241.6C414.8,241.6 409.9,238.2 407.5,241.6ZM410.5,247.2L409,247.2L409.9,251.1C410.1,249.8 412.7,248.5 410.5,247.2ZM382.8,315.9C388.4,318.3 395.5,317.8 399.8,312.9L410.5,271.9L408.4,263.3C399.8,280.9 389.7,297.6 382.8,315.9ZM494,339.9C451.5,331.5 410.9,325.3 368,318.2L367.4,318.8C409.6,326 451.9,336.3 494,339.9ZM334.1,342.9C345.3,345.9 359,346.5 368.9,348.3C358,345.5 346.6,344 335.6,341.4L334.1,342.9ZM344.8,363.1L344.8,356C343.5,352.4 342,346.1 336.4,347.6L344.8,363.1ZM313.9,402.4C323.8,400.7 334.5,412.9 341.8,400.9C353.2,386.3 375.1,373.9 368.8,353.7L347.1,349.2L349.5,355.4C351.3,376.2 331.3,393.4 313.9,402.4ZM274.6,437.2C278.2,426.9 283.4,412.5 277,402.4C276.1,414 275.3,425.6 274.6,437.2ZM236.6,499C255.9,500.3 275,506.1 293.1,506.1C304,485.3 310.1,462.5 311.8,438C313.5,430.5 311.8,421.9 310.1,415.5C347.9,420.4 385.7,430.1 423.9,436.5C425,435.2 426.3,433.9 427.8,433.3C395.2,425.8 361.7,420.4 328.8,414C327.7,412.3 330.7,410.4 329.4,410.1L282.4,400.9C284.5,405.8 284.3,411.6 285.4,417.2C279.8,448.8 262.4,476.2 236.6,499ZM169.4,730.8L339.4,729.3L342.6,730.8C358.9,699.7 372.9,667.3 381.2,632.7L231.1,620.2C225.7,663.4 200.6,699.1 169.4,730.8ZM228.2,615.8C248.4,617.3 271.3,618.8 291.5,620.3C291.9,619 290.6,618.6 290.6,617.3L191.9,608.7L201.8,622.7L225,626.6C226.1,622 224.4,618.4 228.2,615.8ZM373.6,608.1C366.5,606.8 366.9,616.5 365,619.7L367.4,619.7C372.1,619 371.2,611.7 373.6,608.1ZM371.2,627.4L372.7,627.4C373.6,627 373.3,625.9 373.6,625C371.4,624.2 371.9,626.3 371.2,627.4ZM362.6,624.2L362.6,626.6C365,626.6 367.1,627.2 367.3,624.2L362.6,624.2ZM365.9,608.1L314.8,603.4C310.7,605.1 308.6,610.5 306.2,614.3L360.3,618.8L365.9,608.1ZM302.3,618.8L300.8,622C320.6,623.3 337.1,625.6 357.3,625.9L358.2,623.5L302.3,618.8ZM308.5,603.3L293,602.7L293.9,613.4L301.6,613.4C304.5,610.2 306,606.6 308.5,603.3ZM295.4,618.1L296.3,621.1C297.2,620.2 297.4,619.2 297.8,618.1L295.4,618.1ZM374.2,620.3C377.2,618.4 377.8,612.6 379.6,608.7L377.5,608.7C376.4,612.6 372.9,616.4 374.2,620.3ZM385.8,604.2L388.2,602.7C394,578.2 393.1,550.1 392.1,523.7C386.9,507.8 380.3,492.8 371.9,478.2L363.5,476.7C372.9,528.7 334.5,572 294.6,598L385.8,604.2ZM369.7,448.1L360.3,446.4L373.6,473.4L375.1,473.4L369.7,448.1ZM389.7,507.6C385.8,489.1 382.8,470 374.2,453.5C377.2,472.4 383,491.1 389.7,507.6ZM361.1,439.5C360.9,436.3 357.2,438 355.7,436.5C357,437.4 357,442.3 360.2,441C360.1,440.4 360.7,440 361.1,439.5ZM368,443.4L368,441C369.1,437.8 365.2,439.5 364.1,438L364.1,442.5C365.6,442.3 366.9,443 368,443.4ZM413.7,444.3L418.2,440.4L317.1,420.2C320.5,498.1 264.5,571.5 194.1,604.2C227.6,608.1 257.6,608.9 290.1,612.6L290.1,610.5C291.2,603.6 284.7,603.2 286.2,597.2C301.2,589 315.6,576.8 329.3,564.1C353.8,539.6 362.8,506.4 358.1,472.9L369.7,472.9L355.7,445C353.6,443.1 349.5,445.9 348,442.6C345.4,438.3 348.9,434.4 351,431C371.9,435.5 392.5,440.6 413.7,444.3ZM232.1,505.2L289.2,513.8L290.7,511.4L232.7,502.8L232.1,505.2ZM219.7,507.6C239.7,513.2 263.5,515.3 284.7,517.7L219.7,507.6ZM221.2,519.8L220.6,550.7L223,537.6L221.2,519.8ZM182.5,603.3C221.1,588.5 259.6,558.9 283,522.2C263.5,519.4 244.4,515.3 224.4,513.8L225.9,519.8C234,555.2 210.2,584.4 182.5,603.3ZM195.8,621.2C192.2,616.9 190,610.5 184.9,608.1C188.5,613 186.4,622.7 195.8,621.2ZM130.8,615.8C140.7,649.5 161.1,678.9 184.9,707C203.6,684.9 217.7,660.8 223.5,633.6L130.8,615.8ZM129.3,625C140,657.6 155.5,688.3 175.7,716.9C177.4,714.8 180.9,713 181.1,710C160,683.2 140.9,655.7 129.3,625ZM170.9,722.5L172.6,720.8C158.4,695.3 141.3,671 131.6,643.5C140.7,671.6 155.5,697.8 170.9,722.5ZM164.1,736.2L339.5,737.1L339.5,734.1L297,734.1L164.1,736.2ZM334.1,741.8L336.5,742.4L336.5,741.8L334.1,741.8ZM331.1,746.3L327.9,746.3L327.9,749.5L330.3,749.5C331.7,748.9 330.6,747.4 331.1,746.3ZM328.7,753.4L329.3,755.5L329.3,753.4L328.7,753.4ZM330.2,742.4C329.6,741.1 328.1,742 327.2,741.8L327.2,743.3C328.1,743.1 330.4,743.9 330.2,742.4ZM322.5,754C322.7,755.3 321.9,757.9 323.4,757.9L325.5,757.3C326.4,755.1 324.8,751.5 322.5,754ZM325.5,761.1C324.4,760.7 323.1,761.3 323.4,762.6L324.9,762.6C325.3,762.2 325.9,761.8 325.5,761.1ZM322.5,741.8L321,741.8L321,743.9C321.9,743.9 322.7,744.1 323.4,743.3C322.9,742.9 322.3,742.4 322.5,741.8ZM321.6,750.2L324,750.2L324,747.2L321.6,747.2L321.6,750.2ZM320.1,762.6C319,760.5 317.3,763 317.1,763.2C317.8,764.6 319.9,763.3 320.1,762.6ZM317.8,767.1C316.9,770.1 319.1,768.6 320.2,769.5L320.2,767.1L317.8,767.1ZM317.8,747.8L316.3,747.8L317.2,751C318.4,750.4 317.6,748.9 317.8,747.8ZM317.1,743.9C316.9,743 316.5,741.5 315.6,741.8L315.6,743.9L317.1,743.9ZM317.8,758.8L319.5,757.3L317.1,754.1C316.5,756 315.2,757.3 317.8,758.8ZM300.2,832.2L304.7,823.6L303.2,823.6L300.2,832.2ZM300.2,817.4C300.6,816.3 302.6,814 300.8,813.5C299.5,814.4 298.7,816.3 300.2,817.4ZM313.9,780.4C314.1,767.9 314.3,753.8 310.9,741.8C306.6,763.5 297.8,783.7 294.6,805.8C302.7,799.3 309.2,789.5 313.9,780.4ZM249.9,822.1C251.8,822.1 253.8,818.2 252.9,816.7C251.9,817.8 248.6,819.3 249.9,822.1ZM250.6,808.1L250.6,805.1L249.1,808.1L250.6,808.1ZM257.7,794.2C254.3,794.8 248,789.5 247.6,795.9C248.7,796.1 250.2,795.3 250.6,796.5C252.7,797.6 258.1,798.5 257.7,794.2ZM239.8,802.8L227.3,799.8L225.8,802.8L229.7,804.3C233.2,803.8 239.2,809 239.8,802.8ZM239,814.4L237.5,817.4L238.1,817.8L239.6,814.8L239,814.4ZM280,751.7C279.6,751.3 279.1,750.8 278.5,751.1L278.5,753.5L279.1,753.5C279.6,753 280.2,752.5 280,751.7ZM280,763.3L280.9,765.7L280.9,763.3L280,763.3ZM278.5,756.4L276.1,756.4L276.1,758.8L277.6,758.8C278.7,758.3 278.5,757.3 278.5,756.4ZM278.5,768.8L278.5,772.7L279.1,772.7L279.1,768.8L278.5,768.8ZM252.9,775.7C255,775.5 255,773.1 255.9,771.8L250.5,770.3L249,774.2L252.9,775.7ZM243.7,780.4C245.8,781 248,782.1 250.6,781.9L251.5,778.7C248.2,780.2 245.4,775.7 243.7,780.4ZM257.7,768C258.3,767.1 259.6,766.3 259.2,765C257.9,764.6 256.2,765.6 255.3,764.1L253.8,766.5C254.7,767.8 255.9,768.2 257.7,768ZM273.1,771.8C274.4,770.9 274.8,769.4 274.6,767.9C273.7,767.9 272.7,768.1 272.2,767L270.7,770.9C271.6,771.2 272.5,771 273.1,771.8ZM269.3,778.7L271.4,778.7C272.7,777.8 272,776.1 273.1,774.8C269.5,771.6 268.6,777.4 269.3,778.7ZM270.8,761.1L266.1,760.2L265.5,762.6L270,763.2L270.8,761.1ZM263,765.6L262.1,768.8C264,769 265.7,771.6 267.5,769.4L267.5,766.4L263,765.6ZM265.4,754.9L262.2,754L261.6,754.9L265.4,754.9ZM257.7,760.3L261.6,761.8C264.7,759 258.3,757.3 257.7,760.3ZM257.7,776.6L264.6,777.2L265.5,773.3C263.6,773.1 261.6,772.9 259.9,771.8L257.7,776.6ZM263,792L267.5,792.6L267.5,788.7C264.5,788.4 263.5,789.2 263,792ZM270.8,782.6C268.2,780.9 266.5,782.6 265.4,785C267.5,786.2 271,786.2 270.8,782.6ZM269.9,800.4C272,801.3 271.6,799.1 272.3,798L269.9,797.4L269.9,800.4ZM273.1,794.2C274,791 276.7,786.5 274.6,783.5C271.4,785.9 277.6,789.7 272.2,790.4C271.4,791.4 270.8,794.2 273.1,794.2ZM277,779.6L277,775.7L275.3,779.6L277,779.6ZM277,762.6C275.7,760.7 273.1,762.4 273.1,764.1L276.1,764.1C276.5,763.7 277.2,763.3 277,762.6ZM277,743.9C275.5,743.5 274,744.8 274.6,746.3C276.8,747.2 276.1,745 277,743.9ZM271.4,751.7L274.6,751.7L274.6,750.2C273.5,748.7 270.5,749.5 271.4,751.7ZM268.4,757.3L272.3,757.3L272.3,754.9C270.8,754.9 267.5,754.5 268.4,757.3ZM268.4,749.5C268,748.4 266.9,748.6 266,748.6L266,750.1C266.9,750.2 268,750.4 268.4,749.5ZM266,741.8L215.1,740.9C224.5,751.2 234,761.7 246,771L266,741.8ZM208.9,740.9L193.4,740.9C205.2,757.6 217.9,775.2 233.5,788.8L242.7,774.8C229.7,762.8 219.9,753.2 208.9,740.9ZM244.3,791.2L236.6,790.3C238.1,791.8 244.1,797.8 244.3,791.2ZM243.7,806.6L245.2,805.1L245.2,803.6L243.7,806.6ZM242.2,819.7L244.3,820.6L246.7,815.9C243.3,814.4 242.4,819.7 242.2,819.7ZM248.2,784.9C246.1,784 237.3,783.4 241.3,787.3C243.5,788.4 248.9,789.2 248.2,784.9ZM255.3,809.6C257.9,810.7 257.2,807.7 258.3,806.6C255.7,805.6 256.6,808.8 255.3,809.6ZM259.2,791.2L259.8,787.3C257,787.5 250.6,783.9 250.6,789.7L259.2,791.2ZM263,781.1C261.1,779.6 257.8,781.1 255.9,779.6C254.8,780.5 252,783.2 255.3,783.5C258.1,782.6 263,786.7 263,781.1ZM261.5,798.9C263,798.7 264.1,799.3 265.4,799.8L266,796.6L262.1,795.1C262,796.3 259.4,797.6 261.5,798.9ZM262.2,811.4C270.8,812.3 279.2,815.7 287.7,814.4L287.7,812L263,808.1L262.2,811.4ZM282.3,759.8L282.9,757.4L282.3,757.2L281.4,759.3L282.3,759.8ZM285.4,830.7C288.4,829 289,824.9 290.8,822.1C287.9,823.2 287.3,827.7 285.4,830.7ZM304.7,743.3L303.2,741.8L289.2,798L289.2,805.1L304.7,743.3ZM294.6,812.9C292.7,812.7 293.1,814.8 292.5,815.9L294,815.9C295.2,815.4 294.4,813.9 294.6,812.9ZM291.6,832.2L294,832.2C295.1,829 298.3,825.3 297,823L291.6,832.2ZM192,761.1C187.5,754.2 183.2,747.6 178.7,740.9L162.6,740.9L192,761.1ZM216.7,777.2L187.3,740.9L183.4,740.9C193.7,753.4 201.4,774.9 216.7,777.2ZM222,793.5C224.8,790.3 228.4,796.3 229.7,792.6C223.9,785.3 215.1,782.3 208,776.5L222,793.5ZM226.7,832.2C225.6,831.3 222,830.3 222,832.8C220.3,835.4 221.4,839.7 225,839L226.7,832.2ZM232.8,834.5L231.3,840.5C232.2,841.4 233,842.6 234.5,842.2C234.1,840.9 235.4,840.5 236,839.8C237.9,837.3 235.8,834.3 232.8,834.5ZM246.1,838.4C245.7,840.5 243.1,842.9 245.2,845.3L249.1,845.3C248.6,842.3 251.2,837.5 246.1,838.4ZM259.8,842.3L259.8,849.2L263.7,849.2C265.4,845.5 264.7,841.6 259.8,842.3ZM279.1,846.1C277.2,846.5 275.7,845 273.7,845.2L272.2,850.6C273.5,853.8 277.4,851 279.1,853L279.1,846.1ZM300.2,849.1L294,849.1C293.8,851.2 291.2,853.2 293.1,855.3L300.2,855.9L300.2,849.1ZM324.8,852.1C319.4,851 317.1,853.6 317.1,858.3L324,858.3L324.8,852.1ZM351.9,853.9C347.4,852.8 342.5,854.8 343.3,859.9C345.7,859.7 348.5,860.5 350.4,859.3C350.6,857.3 350.8,855.4 351.9,853.9ZM402.1,875.3C401,874 398.9,874.9 397.4,874.7L402.1,876.2L402.1,875.3ZM410.5,866.9C409,866.7 407.9,867.1 406.6,867.5L407.5,868.4C409,869.1 410.3,867.4 410.5,866.9ZM410.5,856C405.3,854.3 402.1,859.2 398.9,860.7C402.8,859.2 407.5,857.7 410.5,856ZM435.4,836C360.7,844.6 278.7,842.9 212.8,816.7L211.9,818.2C230.1,824 247.8,831.5 266.9,835.2C323.1,844.4 378.1,847.7 434.6,838.4L435.4,836ZM306.2,814.4L306.2,818.3L307.1,817.4C306.8,816.5 307.7,814.1 306.2,814.4ZM321,802.8L325.5,802.8C326.4,798 321.4,801.7 321,802.8ZM321.6,807.5C323.3,807.1 325.9,808.1 326.3,806.6C324.8,806.8 322.7,806 321.6,807.5ZM312.4,814.4L312.4,818.3C337.3,821.7 357.9,821.5 384.3,821.3L385.8,815.9C362.4,817.8 336.4,816.1 312.4,814.4ZM331.7,798C330.2,798.4 328.9,799.9 329.3,801.9L333.2,801.9L333.2,799.8C333.7,798.9 332.6,797.8 331.7,798ZM330.2,806.6C331.5,806.4 333.2,807.2 334.1,805.7C332.8,803.8 330.9,806.4 330.2,806.6ZM339.4,800.4C339,798.9 339.4,795.9 337,796.5L337,801.2C337.7,800.2 338.6,800.4 339.4,800.4ZM343.3,798L343.3,795L342.7,795L342.7,798L343.3,798ZM349.5,811.4C351.2,811 353.6,812 354.9,810.5L359.6,791.2C356.6,790.8 354.2,791.8 351.9,792.7C352.3,798.5 348,805.1 349.5,811.4ZM370.4,788.2L365.9,788.8L359.7,811.3L368.1,811.9C372.3,805.6 369.7,796.1 370.4,788.2ZM375.7,810.5C377,810.3 378.9,811.1 379.6,809.6L382,788.1C382,783.2 377.5,787.5 375.1,787.2C375.3,795 374.4,802.3 375.7,810.5ZM383.5,810.5C384.8,810.7 386.7,809.9 387.4,811.4C393.4,803.9 394.7,793.4 398.3,784.4C393.1,783.8 389.1,785.3 384.3,785.9C385.2,794.4 382.6,802.8 383.5,810.5ZM496.4,800.4C495.8,798.5 493.6,797.2 491.7,796.5L494.1,801.2L496.4,800.4ZM496.4,805.8L497.9,808.2C499,808 501.1,808.8 501.1,807.6C500.2,804.7 497.2,806.6 496.4,805.8ZM486.3,803.6C485.7,807.9 491.9,806.2 492.5,806.6C491.9,804.1 489.1,803 486.3,803.6ZM488.6,798.9C488,797.4 486.5,794.8 483.9,795.9C484.3,798.5 485.8,800 488.6,800.4L488.6,798.9ZM484.8,791.2C484.4,789.9 482.9,787.6 480.9,788.2C481.6,790.1 482.4,791.2 484.8,791.2ZM479.4,802.8L479.4,805.2L483.3,805.2C482.8,803.4 481.3,802.1 479.4,802.8ZM480.9,798.9C479.6,797.6 480.5,793.5 477,795C477.5,796.8 477.9,800.4 480.9,798.9ZM477.1,789.7C476.2,788.6 476.7,786.5 474.7,786.5C476.2,787.3 474.3,790.7 477.1,789.7ZM472.3,801.9C471.7,804 473.4,805.8 475.5,805.1L475.5,804.2C474.7,802.8 474.7,801.5 472.3,801.9ZM473.2,795.9C472.6,794.4 472.3,792.9 470.2,793.5C471.7,794.6 470,798.2 473.2,797.4L473.2,795.9ZM470.8,788.2C470.2,787.1 470.6,785 468.4,785.8C468.4,787.1 468.8,789.7 470.8,788.8L470.8,788.2ZM464.6,784.9C463.7,784.7 462.2,785.5 461.6,784.3C459,791.6 457.3,800.2 456.9,807.5C461.6,808.1 465.7,805.8 469.4,806.6L464.6,784.9ZM416.7,815.2L416.1,819.1C447.9,816.5 482.2,816.7 513.3,820.6L515.7,818.2C485.6,810.3 448.3,810.3 416.7,815.2ZM502.6,832.8C499.8,832.6 499.6,836.2 500.2,836.7C501.1,835.4 503.5,835 502.6,832.8ZM492.5,836.7L491.6,842.3C492.5,840.4 494,838.9 494,836.7L492.5,836.7ZM418.2,808.1L416.7,809.6L419.1,809.6C419.3,809 418.7,808.6 418.2,808.1ZM420.6,804.3L420.6,802.8C420,803 419.5,802.4 419.1,801.9L418.2,804.3L420.6,804.3ZM442.3,782.6L429.8,782C426.6,790.4 424.6,800.9 424.4,809C443.1,814.4 436.3,791.4 442.3,782.6ZM425.3,781.9C424,781.7 423.4,783.2 423.8,784.3L425.3,784.3L425.3,781.9ZM421.5,791.2C423.9,792.1 424.5,789.9 424.5,788.2C422.1,787.1 421.5,789.5 421.5,791.2ZM419.9,795.9C420.1,796.8 419.3,798.3 420.5,798.9C420.9,798.5 421.4,797.8 422,798L422,795L419.9,795.9ZM419.9,781.9C417.8,781 416,782.8 416.7,784.9L419.1,784.9C420.6,784.5 419.5,783 419.9,781.9ZM414.4,791.2L416.8,791.2C418.1,791.2 417.7,789.1 418.3,788.2C416.3,787.3 413.9,789.2 414.4,791.2ZM412.2,798L414.3,798C417.3,799.3 415.2,795.6 416.7,795C414.2,794.4 412.4,795.9 412.2,798ZM412.9,808.1L410.5,808.1L410.5,810.5L412.2,810.5C412.2,809.6 412,808.6 412.9,808.1ZM394.4,815.9C390.3,814.2 390.8,818.5 389.7,820.6C393.8,822.3 393.3,818 394.4,815.9ZM388.2,825.9L383.5,836C388.9,836.9 388.2,829.8 390.6,826.8L388.2,825.9ZM394.4,810.5L397.4,810.5C397.4,809.6 397.2,808.6 398.3,808.1C396.6,808.1 393.5,807.7 394.4,810.5ZM395.9,804.3L399.8,804.3L399.8,801.9C398.1,801.7 395.3,802.3 395.9,804.3ZM392.9,836L395,836C397.6,833.4 399.9,828.7 398.9,825.1C394.2,825.5 393.3,831.7 392.9,836ZM402.8,815.9C398.7,814.2 399.4,818.5 398.3,820.6C400.6,819.7 403.6,819.5 402.8,815.9ZM402.1,810.5C404.5,810.7 405.3,810.3 406,808.1C404.3,808.1 401.3,807.7 402.1,810.5ZM407.5,804.3L407.5,801.9C405.1,801.7 404.3,802.3 403.6,804.3L407.5,804.3ZM402.1,835.2C404.7,833.9 407,828.3 408.3,824.5C404.3,825.1 403.4,831.3 402.1,835.2ZM411.4,815.2C408.4,814.1 407.5,818.2 407.5,820.6C410.3,820.8 411.8,817.6 411.4,815.2ZM414.4,804.3L414.4,801.9C412,801.7 411.4,802.3 410.5,804.3L414.4,804.3ZM412.9,782.6C411.6,782.6 409.7,782.4 409.9,784.3L412.3,784.9L412.9,782.6ZM407.5,791.2C410.1,791.8 411.4,790.6 411.4,788.2C408.6,787.1 408.4,789.7 407.5,791.2ZM405.1,798L408.3,798C409.4,798 409.2,795.9 409.8,795C407.3,794.4 405.6,795.9 405.1,798ZM406,782.6C404.9,783.7 403,783 402.1,784.3L406,784.3L406,782.6ZM400.6,791.2C403.2,791.8 404.2,790.6 404.5,788.2C402.3,787.7 399.3,788.4 400.6,791.2ZM398.3,796.5C398.1,797.4 398.5,797.6 398.9,798C400.6,796.7 403.2,798.6 402.1,795L398.3,796.5ZM317.8,808.1L316.3,803.6L307.9,807.5L317.8,808.1ZM447,831.3L445.3,829.8C441.7,836.5 439.9,844.8 438.4,851.5L439.9,851.5C444.4,845.7 444,837.8 447,831.3ZM454.7,836.7L453,835.2C449.6,840.4 447.2,847.2 446.1,853.9C452.4,851.5 453,842.9 454.7,836.7ZM462.5,839.9L459.3,839L455.4,854.5C458.8,851.5 461.2,845.3 462.5,839.9ZM470.8,840.5C464.8,841.1 466.7,849.1 463.9,853C468.7,851.9 469.1,845.1 470.8,840.5ZM479.4,839.9C474.2,839.7 473.4,848.5 473.2,851.5C477.3,849.1 478.1,844 479.4,839.9ZM483.3,834.5C471.7,835.4 459.3,830.4 448.5,825.1C456.7,836.5 470.6,836 483.3,834.5ZM487.1,838.4C483.9,839 483.7,843.8 482.4,846.8C485.2,845.9 486.7,841.6 487.1,838.4ZM523.4,823.6L518.7,827.5C511.8,851.1 500.7,873 485.6,893.2L491,897.1C491.9,895.8 493.1,895.8 494,894.7L491.6,895.6C490.5,893.7 486.4,893.5 487.7,890.2C505.2,870.2 519.8,847.6 523.4,823.6ZM529.6,806.6C518.9,799.1 506.4,796.3 494.8,791.1L507.9,810.4C515.5,812.4 524.1,814.4 529.6,806.6ZM531.1,815.2L560.5,788.8L527.2,814.3C528.8,814.1 529.9,814.8 531.1,815.2ZM603.1,792.7C616,771.9 631.2,750.8 637,727.9L603.1,759.5L599.9,763.4C579.9,778.4 563.4,797.1 544.3,814.5C549.9,820.3 552.2,828.2 555.2,834.7C572.6,822.7 588.7,809 603.1,792.7ZM555.2,837.5L555.2,842.2C566.6,833.6 578,823.1 587.6,811.9L555.2,837.5ZM541.2,841.4C540.6,835.4 536.7,830 532.6,825.9C529,832 539.3,836.5 541.2,841.4ZM545.7,839.9L550.4,837.5C548.3,830.4 545.5,823.5 541.2,817.3L536.5,822C540.2,827.9 546,832.6 545.7,839.9ZM550.5,840.5C545.6,840.7 547.5,845.2 548.1,847.6C552,847.2 549.8,843.1 550.5,840.5ZM693.5,515.7L592.4,494L376.7,448.5C385.3,465.2 389.4,483.7 393,502.6C409.3,615.3 361.2,713 303.3,800.8C357.2,781.1 425.4,767.1 487.3,783.2C503.2,787.9 519.5,793.3 532.8,802.5L611.1,742.9L645.2,714.8C630.8,763.5 594.5,813 554.6,843.3C554.4,846.3 552.2,850 554,851.9C614.3,815.4 674.4,758.3 703,694.3C728.7,640 729.1,565.6 693.5,515.7ZM464.6,459.7L458.6,459.7C430.7,450.5 400.4,447 371.9,439.5L372.8,444.2L425.4,455.8L612.4,495.1L687.3,510.6C693.1,512.1 697.4,510.6 702.8,513L702.8,511.5L682,506.8L464.6,459.7ZM456.2,453.5L456.8,438C450.8,437.1 446.5,440.4 440.7,440.4L439.2,450.3L456.2,453.5ZM526.4,445.8L528.8,445.8C530.9,445.4 530.9,442.6 532,441.1L527.3,440.5C527.9,442.5 524.5,443.8 526.4,445.8ZM530.3,456.5L529.7,461.2L530.3,461.2L531.2,456.7L530.3,456.5ZM524.3,448.8L523.4,452L528.1,452.6L528.7,449.6L524.3,448.8ZM527.3,468.9L528.2,464.2C527.5,465.7 525.4,468.1 527.3,468.9ZM521.9,455L520.4,459.7C524.3,460.1 526.4,460.1 526.4,455.8C524.9,455.6 523.2,455.9 521.9,455ZM518.1,467.4L522.6,467.4L522.6,463.5C518.9,462.5 518.9,464.9 518.1,467.4ZM522.6,439.5C521.7,439.5 520.9,439.7 520.5,438.6C518.4,439.2 516,442 518.1,444.2L522,444.2C521.9,442.5 521.7,440.8 522.6,439.5ZM514.8,447.3L514.2,450.3C516.1,451.6 520.9,451.8 520.4,448.2C518.3,448.6 517,447.1 514.8,447.3ZM510.3,458L516.5,458L516.5,454.1C512.9,453.7 510.8,454.8 510.3,458ZM507.1,465.1L513.3,465.7L514.2,462.7C512,461.6 506.7,460.8 507.1,465.1ZM513.3,438C509.2,436.3 503.6,438 499.3,436.5C492.4,442.5 490.3,452 487.1,460.3L503.2,463.5C507.1,455.2 511.4,447.1 513.3,438ZM493.4,436.5C487.2,437.6 485,434.1 479.4,436.5C481.1,443.4 481.8,450.9 484.8,457.3L493.4,436.5ZM475.5,436.5C470.3,436.7 464.8,435.9 460,437.1L459.1,453.4C464.9,456.4 473.1,457 479.9,458.8L475.5,436.5ZM550.5,474.3L550.5,445.7L548.1,444.8L541.2,471.8L550.5,474.3ZM558.2,455.9L558.2,452.7C557.8,452.3 557.3,451.6 556.7,452.1C556.9,453.5 556.1,455.4 558.2,455.9ZM555.8,461.9L559,461.9L559,458.9L557.3,458.9C556.1,459.7 555.6,460.1 555.8,461.9ZM555.2,469.6L559.7,469.6L559.7,465.7C557.1,465.3 553.7,466.2 555.2,469.6ZM555.8,472.8C555.2,474.9 556.9,476.7 559,475.8C559.9,476.2 560.7,475.2 560.5,474.3C559.9,472 558.2,473 555.8,472.8ZM561.2,455.9C560.8,457.6 562.7,459.5 564.4,458.9L564.4,456.5C563.8,455.2 562.3,456.1 561.2,455.9ZM563.6,452L561.2,448.8L561.2,452L563.6,452ZM566.8,473.5C564.9,472.4 567.4,467.9 563.6,469L564.5,473.5L566.8,473.5ZM564.4,476.7L563.5,477.3L565,477.3L564.4,476.7ZM562.9,461.9C562.9,463.6 562.5,466.6 565,465.8L565,463.7C565.3,462.3 564,461.6 562.9,461.9ZM595.3,471.3C596.8,458 583.1,456.7 574.5,453.5L579.9,480.5L596.9,484.4C597.5,479.5 595.8,475.6 595.3,471.3ZM599.2,476.7C599.6,483.4 604.4,487 610.8,487.4C621.7,493.2 617.7,478.8 620.9,474.3L596.9,461.8L599.2,476.7ZM574.5,476.7L571.3,478.2C572.4,479.5 574.1,478.8 575.2,479.7L574.5,476.7ZM574.5,472.8C574.1,470.4 572.4,468.9 569.8,469.6L571.3,473.5L574.5,472.8ZM568.9,463.6L568.9,465.7L572.8,465.7C573.2,462.1 571.1,464.9 568.9,463.6ZM571.3,457.4C571.5,455.5 569.6,455.9 568.3,455.9L568.3,459.8L571.3,459.8L571.3,457.4ZM569.8,452C569.2,450.5 567.7,451.4 566.8,451.1L567.4,452.6L569.8,452ZM622.4,489.8L657.2,496.7C646.5,489.2 635.9,481 623.9,476.7C622.2,480.5 620.5,485.5 622.4,489.8ZM657.2,398.5C652.3,380.3 632.9,383.7 619.2,380L475.6,356C471.5,388.4 450.5,415.9 429.2,438.6C513.8,418.4 592.8,449.3 658.7,492.7C668.5,463.8 673.9,426.2 657.2,398.5ZM674.1,390.2L654.8,387C659.5,391.1 660.6,396.7 663.4,401.8C667.5,397.2 670.9,394.7 674.1,390.2ZM672.6,396.2C668.7,401.1 661.7,406.5 667.9,413.4C672.4,406.3 674.6,398.4 678,390.9L672.6,396.2ZM672.6,434.2C676.5,420 683.5,407.4 681.8,390.8C678.8,405.2 661.7,417.9 672.6,434.2ZM468.5,348.3L468.5,349.8L671.8,385.4L679.5,385.4C608,373.8 539.1,360.3 468.5,348.3ZM553.5,349.8L559.7,350.7L559.7,348.3C558.2,347.7 552.8,345.9 553.5,349.8ZM561.2,345.3L561.2,342.9L556.7,342.9L556.7,344.4C558.6,343.8 559.3,345.9 561.2,345.3ZM552,353.7L552,354.6L554.1,354.6C554.8,354.7 555.6,354.6 556.4,354.6L558.3,354.6C557.7,354.5 557,354.6 556.4,354.6L554,354.6C553.3,354.4 552.6,354.2 552,353.7ZM550.5,357.5C551.4,358.3 552.7,358.4 553.9,358.4L557.3,359.3C556.4,358.4 555.2,358.4 553.9,358.4L550.5,357.5ZM551.3,342.1C537.6,340 520.8,340 507.1,342.1L508.8,351.5C520.8,353.6 534.6,356.4 545.7,356.9C547.7,352 551.8,346.4 551.3,342.1ZM571.3,362.3L571.3,353L569.8,362.2L571.3,362.2L571.3,362.3ZM643.2,312.9L509.5,288.9C518.9,303.5 515.5,323.2 506.5,336.8C559.1,332.7 606.1,346.9 648.6,369.2C654.4,375.4 653.3,365.1 655.7,363.2C659.5,344.9 656.5,325.1 643.2,312.9ZM657.2,323.6C658.9,321.2 660,318.4 661.1,315.9L651,314.4L657.2,323.6ZM664.9,316.7C661,322.9 657.2,330.7 661,336C663.4,330.1 666,322.3 664.9,316.7ZM635.5,298.9C637.4,303.6 644.7,302.3 649.5,303.4C644.8,300.4 640.3,297.4 635.5,294.2L635.5,298.9ZM544.2,289.7L544.2,291.2C585.6,296.8 627.3,307.9 667.2,311.2C626.7,305.2 585.7,295.7 544.2,289.7ZM620.9,285.8L617,296.5C621.3,299.5 626.4,300.8 632.5,300.4L632.5,298C634.8,289.9 625.4,288.2 620.9,285.8ZM629.3,267.2L623.1,282.7L630.8,287.4C631.4,280 629.9,273.8 629.3,267.2ZM653.9,137.3L657.8,148.9C670.9,150.4 681.6,157.7 692.6,163.7C693.9,160.1 696.5,156.8 696.5,152.8C683.1,145.9 670.5,137.1 653.9,137.3ZM621.5,153.6C630.9,158.5 640.6,162.4 650.9,165.2C653.9,162.6 654.8,157 653.3,152.7C642.8,152.5 633.8,148 624.7,144.3L621.5,153.6ZM613.8,233.2L627.8,247.8L620.9,168.2L613.8,233.2ZM616.2,175.3L604.6,222.3C607.4,224.4 607.8,227.5 610.8,229.4L616.2,175.3ZM564.4,235.6L595.3,217.8L612.3,156L596,181.5C592.8,183.9 596.9,190.7 590.6,190.7C582,205.5 570.6,221.2 564.4,235.6ZM547.5,186C556.5,178.7 567.3,189.9 576.1,188.4C565.8,185.6 558.1,177.2 547.5,175.3L547.5,186ZM546.6,190.7C547.7,195.4 543.6,203.6 550.5,204.7C551.1,210.3 545.3,207.3 544.3,212.4C547.1,228.3 523.7,252.8 549.7,259.4C551.8,254.9 554.6,247.8 551.4,243.9C551.8,242.4 553.3,241.1 555.3,241.5C566.5,226.3 577.2,209.5 586.9,193C572.8,198 559.5,183.2 546.6,190.7ZM546.6,103.4C544,104.5 540.4,104.3 538.9,106.4L527.3,147.4C526.9,157.5 514.6,169.5 525.8,177.7C529.9,179.2 534.2,182.2 538.9,179.8C539.1,178.3 538.5,177.2 538,175.9C539.3,174.2 541.2,170.5 544.2,171.4L546.6,103.4ZM619.8,96.5C621.6,92.9 623.4,89.5 625.4,86.1L614.8,80.4C611.2,82.9 608.5,86.4 605.1,89.1L607.3,76.2L595.2,69.3L608.6,67.9C609.4,63.7 610.2,59.5 610.7,55.2L616.6,67L630,65.3C627.3,68.2 623.8,71.7 620.5,74.7C622.2,78.3 624,81.8 625.7,85.4C629.1,79.5 632.7,73.8 636.7,67.8C639.5,64.3 643.8,63.3 647.6,61.2L648.1,60.4C648,59.7 648.7,58.2 648,57.9C619.2,47 583.3,48.3 552,49.1C550.1,66.4 545.6,85.1 539.3,101.5C553.9,95.5 590,93.7 603.1,94.9L619.8,96.5ZM674.3,113.6L678.8,106.2L669.7,109.3L675.3,100.7C673.4,98 671,95.4 669.4,92.7C672.6,93.6 675.9,94.6 679.1,95.5L684.7,87.2C685.2,90.7 684.8,94.2 685.4,97.6C688.5,95 692.9,94.3 695.5,90.9C695.4,88.7 692.5,88.2 691.3,87C680.5,82.4 669,81.1 657.7,79.1C650.6,77.3 642.4,76.1 636.7,71.1C635.7,72.4 634.2,74 633.2,75.8L634.3,81.8C638,82.4 641.9,82.6 645.2,83.8L635.7,88.9L637.6,99.4C634.8,97.4 632.4,94.5 629.6,92.1C627,93.9 624.2,95.4 621.2,96.6C620.2,98.8 618.6,100.5 618.7,102.9C618.9,104.2 620.7,104.7 621.5,105.4C638.8,110.5 657.2,108.2 674.3,113.6ZM743.4,116.3L743.6,114.2C726,114.6 709,111.9 693,106.2C690.1,105.1 686.2,103.4 685.3,100.5C682.5,103.3 680.3,106.8 678,110.3C676.1,113.1 675.6,116.1 675.6,119.2C678.4,120.9 680,122.3 683.7,123C701,126.5 715.2,130.3 733.5,128.2C737.8,125.9 740.4,120.6 743.4,116.3ZM803,120C802.1,119.6 801.2,119.4 800.4,118.7C800.6,118.9 800.5,119.7 799.9,119.5C799.2,119.3 799.7,118.6 799.7,118.5L797.8,118.6C796.6,119.6 797.9,120.7 796.9,122.1C795.2,123.5 793.2,122.3 791.4,122C780.4,116.9 769.8,109 758.1,107.6C754.5,107.7 748.9,106.9 747.3,111.2C748.6,113.3 749.7,110.8 750.9,110.5C750.9,111.4 750.4,112.2 750.2,112.8L752.2,114.6L749.6,115C749.1,115.5 749.1,116.2 748.9,116.9C747.7,117.2 748,115.5 747.3,115C744.3,114 744.5,118.3 743,119.1L746.6,117.5C758.9,114.6 770.1,118.1 781.1,122.5C786.2,124.1 791.2,126 796.5,126.5C799.9,124.8 795.5,122 798.9,120C800.2,119.4 801.7,119.4 803,120ZM795.4,183.7C794.6,182.8 793.8,181.4 792.9,180C793.1,181.5 794.2,182.6 795.4,183.7ZM562.1,861.6C562.1,864.4 565.1,862.5 566.8,863.1C568.3,862.2 570.9,860.7 570.7,858.4C567.6,854.7 561.8,858.1 562.1,861.6ZM578.4,860.7C576.3,863.3 578.4,866.3 581.4,866.1C583.5,865.7 584.8,864.4 585.3,862.2C585,858.4 580.1,860.1 578.4,860.7ZM599.8,868.5C599.8,870.2 600.2,872.1 598.3,873.2C595.9,873 591.9,873.6 592.1,870C592.7,868.1 594,866.8 596,866.1C597.3,866.1 598.6,866.9 599.8,868.5ZM598.3,870C597.2,867.6 595.9,869.6 594.4,870L595.3,870.9C596.4,870.6 597.9,871.5 598.3,870ZM465.5,891.6L467.9,897.8L464.7,898.4C465.1,894.5 460,890.7 455.5,889.2C453.4,888.1 449.9,888.6 449.3,885.3C454.3,877.7 462.9,886.1 465.5,891.6ZM460.7,888.6L459.2,886.2L453.8,885.3L460.7,888.6ZM548.1,887.8C548.7,885.7 550,882.2 552.8,882.4C561,879.6 566.1,896.4 575.1,886.9C577.5,888.4 578.1,891.2 576.6,893.1C572.1,897 566.3,895.9 561.1,894C559.2,891.2 555.5,889.3 552.7,886.9C551.3,887.3 549.6,889.9 548.1,887.8ZM556.7,886.3C559,888.4 560.9,890 563.1,891.1C564,892 565.1,892.6 566.7,892.5C568.1,892.9 569.6,893.1 571.3,893.1C572.4,892.2 575.2,892 574.5,890.1L566.8,892.5L566.7,892.5C565.4,892.2 564.2,891.7 563.1,891.1C561.1,889.1 560,886 556.7,886.3ZM208.9,892.5C204,883.7 195.8,887.3 189.6,890.8C184.7,891.7 178.4,890.8 174.1,887.8C171.3,889.9 175.4,892.3 177.1,892.5C187.6,897.4 198.1,885.8 205.7,893.1C210.9,896.5 217.3,893.7 222,891.6C224.6,892 228,896.1 229.7,892.5C223.3,882 217.3,895.9 208.9,892.5ZM416.7,894.6C422.5,890.1 431.7,886.9 438.4,891.6C439.3,892.7 440.8,892.7 441.4,894C439.3,896.6 438.2,894 436,893.1C426,888.2 421.7,909.7 416.7,894.6ZM419.9,897L421.4,897L424.4,893.1L419.9,897ZM456.9,895.5L456.9,897C453.5,898.9 449.4,897.2 446.2,895.5C446,894.6 443.4,892.5 445.3,890.8C450.9,889.1 452.1,896.4 456.9,895.5ZM450.9,893.1L447.9,892.5L447.7,893.1L450.9,894L450.9,893.1ZM577.5,910.1C576,910.7 574.9,912 573.6,913.3C567.2,910.5 564.8,898.5 556.6,900.2C554.7,898.5 551.9,895.9 555.1,894C562.4,895.3 568.4,904.5 578.3,902.4C581.6,904.5 579,908.2 577.5,910.1ZM576.7,904.7C574.1,904.5 571.1,905.3 569,904.1L572.9,909.5C574.9,908.2 576.7,907.5 576.7,904.7ZM593.8,906.2L593.8,908.6C586.1,909.2 584.4,899.2 577.5,899.4L577.5,896.4C584.6,895.5 589.8,901.1 593.8,906.2ZM588.9,902.6L586.5,900.5L586.1,900.9L588.2,903.3L588.9,902.6ZM385.8,909.5C377.4,914 367.6,914.2 358.8,917.9L356.4,916.4L351.9,915.8C350.2,914.5 354.7,911.1 356.4,913.4C361.1,917.9 367.6,912.5 372.7,911C379.8,909.1 384.5,901.3 392,900.3L392.9,902.4C393.3,906.7 388.6,908 385.8,909.5ZM385.6,907.7L389.5,904.5L389.1,904.1L385.2,907.1L385.6,907.7ZM398.9,913.3C392,914.8 385.6,919.5 378.9,919.5C388.6,914.8 398.2,909.2 406.6,901.7C408.5,902.1 412.8,900.2 412.2,904.1C412,911 403.2,909.9 398.9,913.3ZM404.5,908L405.1,908L409,904.1L404.5,908ZM368,904.1L366.5,902.4C360.5,905.2 354.7,910.1 347.2,907.1C341.6,896.2 333.9,908.2 327.2,908.6C321.4,906.9 314.7,907.5 310,903.2C304.6,911.4 295.4,908.8 287.7,907.1C283.4,898.1 276.5,906.7 270.7,904.1C264.5,900.5 258.5,906.7 252.9,909.5C246.7,912.5 238.7,908.4 232.7,908.6L232.7,911C239.6,909.5 247.7,914 254.4,910.1C262.3,902.6 273.1,908.8 282.3,904.7C287.7,910.3 295.6,910.1 303.1,910.9C308,909 312.5,903.8 317.7,908.5C326.3,915.2 333.8,906.4 341.7,904.6L351.8,909.3C357.7,908.8 363.7,908.2 368,904.1ZM491.6,910.1L501.7,903.2C498.1,902.4 491.9,905.2 491.6,910.1ZM688.7,903.2C682.3,909.6 671.3,910.3 663.4,908.6C658.5,897.9 647.7,905.2 640.2,906.2C637,901.9 632,902.3 626.9,902.3C618.1,914.3 608,895 599.2,907C601.8,912.2 605.9,903.8 610.8,905.5C617.9,911.7 624.8,903.1 632.5,903.1C637.9,914.3 647.1,903.5 655.7,904.6C661.3,915.1 672.4,910.4 680.4,910.8C689.2,898.3 697.8,920 710.5,911.7L710.5,910L702.8,910.9C696.9,911.2 691.5,907.3 688.7,903.2ZM392.9,923.4C405.1,918.5 419.9,916.7 427.7,904.1C418,915 402.1,917 392.9,923.4ZM450.9,905.6C453.9,912 446,912 443.2,914C438.5,913.6 434.2,914.4 430.7,917.2C429.2,916.6 430.3,915.1 429.8,914C438.6,915.3 442.5,900.4 450.9,905.6ZM448.5,908C445.5,908.2 443.1,910.1 440.8,911.9C444.4,912.9 446.8,909.5 448.5,908ZM548.1,909.5C547.9,905 553.7,908.6 555.8,906.3L555.2,907.2C557.6,910.2 565.7,910 562.9,915.8C557.3,919.8 552.2,911.8 548.1,909.5ZM553.5,910.1C553.9,912.5 558.2,915.5 559.7,914L553.5,910.1ZM564.4,927.3C559.5,923.9 551.9,923 548.9,929.4C544.2,932.6 543.1,925.3 540.3,923.4C536,920.2 533.4,925.5 529.6,925.5C527.5,924.9 526,922.7 526.4,920.1C519.3,907.6 513.3,928.5 505.6,916.2C503.2,917.3 498.1,916.6 498.7,920.1C500.8,920.3 502.8,919.9 504.9,919.5C510.3,926.6 515.2,919.1 521,917.8C525.9,918.9 523.6,924.2 527.2,926.4C532.1,929.2 534.1,924.7 538.8,924.9C542.4,927 542,930.7 544.2,933.3C549.4,932.4 551.9,929.7 555.8,925.6C560.3,928.6 567.8,929 568.9,935L572.1,935C571.5,930.9 567,929.8 564.4,927.3ZM797.2,119.7C797.6,120.6 798.1,120.2 798.3,120.2C798,119.9 798.5,119.7 798.5,119.5C797.6,119.6 798.1,119.5 797.2,119.7ZM797.3,123.5C796.9,123.5 796.6,123.3 796.6,122.8C796.5,123.5 795.9,123.2 795.4,123.2C795.4,123.5 796.2,124 795.7,124.5C796.1,124 796.6,124.3 797,124.6C796.9,124.2 796.7,123.6 797.3,123.5ZM793.9,123.4C793.8,124 793.1,124.2 792.7,124.2L793.2,124.5C793.2,124.7 793.1,125.2 793.1,125.3C793.5,124.9 794.3,125.2 794.5,125.3C793.7,124.6 794.8,124.5 795,124.1L794.8,124.1C794.2,124.2 793.9,124 793.9,123.4ZM793.1,125.3C793.1,125.4 793.1,125.4 793.1,125.3ZM791.4,122.6C791,123.1 790.1,123.6 789.8,123C792,125.2 789.1,122.4 789.7,124.5C790.5,123.9 790.7,125 791,124.9L791,124.2L792.2,124.1L791.3,123.7C791.2,123.4 791.4,123 791.4,122.6ZM788.7,121.4C787.8,122.4 786.9,121 786.8,121.1C786.9,121.2 787.1,123 786,122.4C786.8,122.5 786.7,123.4 786.9,123.9C787.2,123.1 787.8,122.9 788.4,123.3L787.9,122.3C788.4,122.2 788.5,121.7 788.7,121.4ZM784.6,119.2L783.6,120.1C783.6,120.1 783.2,119.4 782.7,119.7C783.2,120.3 783.1,121.4 782.3,121.7L782.6,121.7C783.6,121.1 784,122.4 784.3,122.6C784.1,121.6 784.6,121.3 785.7,121.2C784.6,120.8 784.4,120.1 784.6,119.2ZM776.3,114.7C776.2,114.8 774.6,116.9 773.5,114.8C773.9,115.8 774.5,117 772.1,117.4C774.3,117.5 774.7,117.6 774.5,119.4L775.3,117.9C775.8,117.9 777,117.8 777,117.8L776.2,116.5C776,115.8 776.4,115.3 776.3,114.7ZM780.5,117.4L779.1,118.1C779,117.7 778.5,117.6 778.2,117.3C778.8,118.4 778.2,119.1 777.3,119.4C778.4,119.3 779.1,119.8 779,121C779.4,120.6 779.3,120.2 779.6,119.8C780.2,119.5 781.1,119.8 781.6,119.9C781.2,119.4 779.5,118.2 780.5,117.4ZM771,112.9L769.5,113.8C769.1,113.5 768.5,113.3 768.3,112.8L768.4,114.7C767.9,114.9 767.1,115.4 767.1,115.7C767.5,115.5 767.7,115.7 768.1,115.6C769.3,115.4 768.7,116.8 769.3,117.3L770,115.9C770.7,115.7 771.2,116 771.8,115.9C770.3,115.4 770.8,113.9 771,112.9ZM764.7,110.4L764.3,111.1C763.7,112.7 761.8,111.2 761.4,111.3C762.6,112.7 762,113.9 760.6,114.7C762,114.3 763.5,114.5 763.7,116.2L764.4,114.2C765.1,114 765.8,113.8 766.4,113.8C764.8,113.2 764.1,112.1 764.7,110.4ZM758.5,109.4L756.4,110.6C755.5,110.2 755.1,109.4 754.5,108.9L754.7,111.8L753,113L755.3,113.3L755.9,115.7L757,113.4C757.9,113.3 758.8,113.5 759.7,113.5L757.7,111.5L758.5,109.4ZM738.4,119.2L735.8,120.4L733.7,118.4C734.1,119.4 734,120.4 734.1,121.4L731.7,122.6L734.5,123.3L734.9,125.9L735.3,125.3C735.4,122.9 737.7,124.4 738.5,123.2L737.5,122.3C736.8,121.1 738.3,120.3 738.4,119.2ZM726.3,120.1C725.9,118.9 725,117.5 724.5,116.9L724.1,120.4L720.1,121.3L723.6,123C723.9,124.4 723.1,125.6 723.1,126.9L725.8,124.3L729.2,125.8C728.7,124.6 728.2,123.5 727.5,122.4L730.2,119.6L726.3,120.1ZM718.4,116.6C717,117.1 715.5,117.9 714.1,118.2L711.5,115.1L711.9,119.1C710.9,120 709.3,120.7 707.7,121.3L712,122.4C711.8,123.8 712.4,125.3 712.2,126.7L714.6,123L718.8,124L716,120.5L718.4,116.6ZM668.7,87.9L658.7,89.2L654.3,80.3C653.9,83.6 653.3,86.7 652.7,89.9L642.5,91L651.6,96.2L649.9,105.9C652.4,103.9 654.5,101.2 657.2,99.3L666.1,104.1C664.6,101.1 663.1,98.1 661.6,95C664,92.7 666.7,90.1 668.7,87.9ZM590,64.6L575.3,66.5L568.8,53.5C568.2,58.3 567.3,62.8 566.5,67.5L551.7,69.1L565,76.7L562.5,90.9C566.2,88 569.2,84 573.1,81.3L586.1,88.3C583.9,83.9 581.7,79.5 579.6,75C583.1,71.6 587,67.8 590,64.6ZM702,116.4L700.7,111.6L699.5,115C698.8,117.7 695.5,115.7 693.8,116.3L697.6,119C697.6,120.8 696.5,122.5 696.2,124.1C697.6,123 699.1,122.2 700.5,121.3L704.7,124.4L703.1,119.3C704.6,118.6 705.9,117.6 707.1,116.6C705.4,116.8 703.7,116.5 702,116.4ZM688,112.8L687.5,107.2L684.6,112L679.2,110.8L682.8,115.2L680.1,120.1L685.4,118L689.1,122.3C689,120.4 688.7,118.5 688.4,116.5C690.3,115.9 692.2,114.8 693.5,114L688,112.8Z" style="fill:rgb(249,129,58);fill-rule:nonzero;"/>
        </g>
        <g transform="matrix(1.00341,0,0,1,24.4957,2.92988)">
            <g transform="matrix(149,0,0,149,32.7508,506.11)">
                <path d="M0.629,-0L0.535,-0L0.535,-0.329L0.176,-0.329L0.176,-0L0.083,-0L0.083,-0.711L0.176,-0.711L0.176,-0.405L0.535,-0.405L0.535,-0.711L0.629,-0.711L0.629,-0Z" style="fill:rgb(249,129,58);fill-rule:nonzero;"/>
            </g>
            <g transform="matrix(149,0,0,149,138.972,506.11)">
                <rect x="0.089" y="-0.711" width="0.094" height="0.711" style="fill:rgb(249,129,58);fill-rule:nonzero;"/>
            </g>
            <g transform="matrix(149,0,0,149,179.495,506.11)">
                <path d="M0.607,-0.093C0.583,-0.059 0.55,-0.033 0.507,-0.016C0.463,0.001 0.413,0.01 0.356,0.01C0.298,0.01 0.247,-0.004 0.202,-0.031C0.157,-0.058 0.122,-0.097 0.097,-0.147C0.073,-0.197 0.06,-0.255 0.06,-0.321L0.06,-0.383C0.06,-0.49 0.085,-0.573 0.135,-0.632C0.184,-0.691 0.255,-0.721 0.345,-0.721C0.419,-0.721 0.479,-0.702 0.524,-0.664C0.57,-0.626 0.597,-0.572 0.607,-0.502L0.514,-0.502C0.496,-0.597 0.44,-0.644 0.346,-0.644C0.283,-0.644 0.235,-0.622 0.203,-0.577C0.17,-0.533 0.154,-0.469 0.154,-0.386L0.154,-0.328C0.154,-0.248 0.172,-0.184 0.208,-0.137C0.245,-0.09 0.294,-0.067 0.356,-0.067C0.392,-0.067 0.422,-0.071 0.449,-0.079C0.475,-0.086 0.497,-0.1 0.514,-0.118L0.514,-0.278L0.35,-0.278L0.35,-0.354L0.607,-0.354L0.607,-0.093Z" style="fill:rgb(249,129,58);fill-rule:nonzero;"/>
            </g>
            <g transform="matrix(149,0,0,149,280.987,506.11)">
                <path d="M0.629,-0L0.535,-0L0.535,-0.329L0.176,-0.329L0.176,-0L0.083,-0L0.083,-0.711L0.176,-0.711L0.176,-0.405L0.535,-0.405L0.535,-0.711L0.629,-0.711L0.629,-0Z" style="fill:rgb(249,129,58);fill-rule:nonzero;"/>
            </g>
            <g transform="matrix(149,0,0,149,387.208,506.11)">
                <path d="M0.292,-0.317C0.212,-0.34 0.153,-0.368 0.116,-0.402C0.08,-0.436 0.062,-0.477 0.062,-0.527C0.062,-0.583 0.084,-0.629 0.129,-0.666C0.173,-0.702 0.232,-0.721 0.303,-0.721C0.352,-0.721 0.396,-0.711 0.434,-0.692C0.472,-0.674 0.502,-0.647 0.523,-0.614C0.544,-0.581 0.554,-0.545 0.554,-0.505L0.46,-0.505C0.46,-0.548 0.446,-0.582 0.419,-0.607C0.392,-0.631 0.353,-0.644 0.303,-0.644C0.257,-0.644 0.221,-0.633 0.195,-0.613C0.169,-0.593 0.156,-0.564 0.156,-0.528C0.156,-0.499 0.169,-0.475 0.193,-0.455C0.218,-0.435 0.26,-0.417 0.319,-0.4C0.378,-0.383 0.424,-0.365 0.457,-0.345C0.491,-0.325 0.515,-0.302 0.531,-0.275C0.548,-0.248 0.556,-0.217 0.556,-0.181C0.556,-0.123 0.533,-0.077 0.488,-0.042C0.443,-0.008 0.383,0.01 0.308,0.01C0.259,0.01 0.214,0 0.171,-0.018C0.129,-0.037 0.096,-0.063 0.073,-0.095C0.051,-0.128 0.039,-0.165 0.039,-0.206L0.133,-0.206C0.133,-0.163 0.149,-0.129 0.181,-0.104C0.213,-0.079 0.255,-0.067 0.308,-0.067C0.358,-0.067 0.396,-0.077 0.422,-0.097C0.448,-0.117 0.461,-0.145 0.461,-0.18C0.461,-0.215 0.449,-0.241 0.425,-0.26C0.4,-0.28 0.356,-0.298 0.292,-0.317Z" style="fill:rgb(249,129,58);fill-rule:nonzero;"/>
            </g>
            <g transform="matrix(149,0,0,149,475.604,506.11)">
                <path d="M0.484,-0.329L0.176,-0.329L0.176,-0.077L0.534,-0.077L0.534,-0L0.083,-0L0.083,-0.711L0.529,-0.711L0.529,-0.634L0.176,-0.634L0.176,-0.405L0.484,-0.405L0.484,-0.329Z" style="fill:rgb(249,129,58);fill-rule:nonzero;"/>
            </g>
            <g transform="matrix(149,0,0,149,560.289,506.11)">
                <path d="M0.475,-0.186L0.177,-0.186L0.11,-0L0.014,-0L0.285,-0.711L0.367,-0.711L0.639,-0L0.543,-0L0.475,-0.186ZM0.206,-0.263L0.447,-0.263L0.326,-0.595L0.206,-0.263Z" style="fill:rgb(249,129,58);fill-rule:nonzero;"/>
            </g>
            <g transform="matrix(149,0,0,149,657.489,506.11)">
                <path d="M0.292,-0.317C0.212,-0.34 0.153,-0.368 0.116,-0.402C0.08,-0.436 0.062,-0.477 0.062,-0.527C0.062,-0.583 0.084,-0.629 0.129,-0.666C0.173,-0.702 0.232,-0.721 0.303,-0.721C0.352,-0.721 0.396,-0.711 0.434,-0.692C0.472,-0.674 0.502,-0.647 0.523,-0.614C0.544,-0.581 0.554,-0.545 0.554,-0.505L0.46,-0.505C0.46,-0.548 0.446,-0.582 0.419,-0.607C0.392,-0.631 0.353,-0.644 0.303,-0.644C0.257,-0.644 0.221,-0.633 0.195,-0.613C0.169,-0.593 0.156,-0.564 0.156,-0.528C0.156,-0.499 0.169,-0.475 0.193,-0.455C0.218,-0.435 0.26,-0.417 0.319,-0.4C0.378,-0.383 0.424,-0.365 0.457,-0.345C0.491,-0.325 0.515,-0.302 0.531,-0.275C0.548,-0.248 0.556,-0.217 0.556,-0.181C0.556,-0.123 0.533,-0.077 0.488,-0.042C0.443,-0.008 0.383,0.01 0.308,0.01C0.259,0.01 0.214,0 0.171,-0.018C0.129,-0.037 0.096,-0.063 0.073,-0.095C0.051,-0.128 0.039,-0.165 0.039,-0.206L0.133,-0.206C0.133,-0.163 0.149,-0.129 0.181,-0.104C0.213,-0.079 0.255,-0.067 0.308,-0.067C0.358,-0.067 0.396,-0.077 0.422,-0.097C0.448,-0.117 0.461,-0.145 0.461,-0.18C0.461,-0.215 0.449,-0.241 0.425,-0.26C0.4,-0.28 0.356,-0.298 0.292,-0.317Z" style="fill:rgb(249,129,58);fill-rule:nonzero;"/>
            </g>
            <g transform="matrix(149,0,0,149,745.885,506.11)">
                <path d="M0.475,-0.186L0.177,-0.186L0.11,-0L0.014,-0L0.285,-0.711L0.367,-0.711L0.639,-0L0.543,-0L0.475,-0.186ZM0.206,-0.263L0.447,-0.263L0.326,-0.595L0.206,-0.263Z" style="fill:rgb(249,129,58);fill-rule:nonzero;"/>
            </g>
            <g transform="matrix(149,0,0,149,843.084,506.11)">
                <path d="M0.343,-0.288L0.176,-0.288L0.176,-0L0.082,-0L0.082,-0.711L0.317,-0.711C0.397,-0.711 0.459,-0.693 0.502,-0.656C0.545,-0.62 0.567,-0.567 0.567,-0.497C0.567,-0.453 0.555,-0.414 0.531,-0.381C0.507,-0.348 0.474,-0.324 0.431,-0.308L0.598,-0.006L0.598,-0L0.498,-0L0.343,-0.288ZM0.176,-0.364L0.32,-0.364C0.367,-0.364 0.404,-0.376 0.431,-0.4C0.459,-0.424 0.473,-0.457 0.473,-0.497C0.473,-0.541 0.46,-0.575 0.433,-0.598C0.407,-0.622 0.369,-0.633 0.32,-0.634L0.176,-0.634L0.176,-0.364Z" style="fill:rgb(249,129,58);fill-rule:nonzero;"/>
            </g>
            <g transform="matrix(149,0,0,149,929.006,506.11)">
                <path d="M0.574,-0.634L0.345,-0.634L0.345,-0L0.252,-0L0.252,-0.634L0.024,-0.634L0.024,-0.711L0.574,-0.711L0.574,-0.634Z" style="fill:rgb(249,129,58);fill-rule:nonzero;"/>
            </g>
            <g transform="matrix(149,0,0,149,1016.75,506.11)">
                <path d="M0.292,-0.317C0.212,-0.34 0.153,-0.368 0.116,-0.402C0.08,-0.436 0.062,-0.477 0.062,-0.527C0.062,-0.583 0.084,-0.629 0.129,-0.666C0.173,-0.702 0.232,-0.721 0.303,-0.721C0.352,-0.721 0.396,-0.711 0.434,-0.692C0.472,-0.674 0.502,-0.647 0.523,-0.614C0.544,-0.581 0.554,-0.545 0.554,-0.505L0.46,-0.505C0.46,-0.548 0.446,-0.582 0.419,-0.607C0.392,-0.631 0.353,-0.644 0.303,-0.644C0.257,-0.644 0.221,-0.633 0.195,-0.613C0.169,-0.593 0.156,-0.564 0.156,-0.528C0.156,-0.499 0.169,-0.475 0.193,-0.455C0.218,-0.435 0.26,-0.417 0.319,-0.4C0.378,-0.383 0.424,-0.365 0.457,-0.345C0.491,-0.325 0.515,-0.302 0.531,-0.275C0.548,-0.248 0.556,-0.217 0.556,-0.181C0.556,-0.123 0.533,-0.077 0.488,-0.042C0.443,-0.008 0.383,0.01 0.308,0.01C0.259,0.01 0.214,0 0.171,-0.018C0.129,-0.037 0.096,-0.063 0.073,-0.095C0.051,-0.128 0.039,-0.165 0.039,-0.206L0.133,-0.206C0.133,-0.163 0.149,-0.129 0.181,-0.104C0.213,-0.079 0.255,-0.067 0.308,-0.067C0.358,-0.067 0.396,-0.077 0.422,-0.097C0.448,-0.117 0.461,-0.145 0.461,-0.18C0.461,-0.215 0.449,-0.241 0.425,-0.26C0.4,-0.28 0.356,-0.298 0.292,-0.317Z" style="fill:rgb(249,129,58);fill-rule:nonzero;"/>
            </g>
            <g transform="matrix(149,0,0,149,1142.03,506.11)">
                <rect x="0.085" y="-0.711" width="0.073" height="0.843" style="fill:rgb(249,129,58);fill-rule:nonzero;"/>
            </g>
        </g>
    </g>
</svg>
