<?xml version="1.0" encoding="UTF-8" standalone="no"?>
<!DOCTYPE svg PUBLIC "-//W3C//DTD SVG 1.1//EN" "http://www.w3.org/Graphics/SVG/1.1/DTD/svg11.dtd">
<svg width="100%" height="100%" viewBox="0 0 1400 980" version="1.1" xmlns="http://www.w3.org/2000/svg" xmlns:xlink="http://www.w3.org/1999/xlink" xml:space="preserve" xmlns:serif="http://www.serif.com/" style="fill-rule:evenodd;clip-rule:evenodd;stroke-linejoin:round;stroke-miterlimit:2;">
    <g transform="matrix(2.71578,0,0,2.71578,-1805.56,-1785.82)">
        <g>
            <g>
                <path d="M736.6,837.4C736.3,836.2 736.1,834.9 736.1,833.7C736.1,832.4 736.3,831.1 736.7,829.8C734.8,829.7 732.6,830.8 732.2,833C732.2,833.3 732.1,833.7 732.1,834C732.1,834.3 732.2,834.7 732.2,835C732.6,837.1 734.7,837.8 736.6,837.4Z" style="fill:rgb(255,151,0);fill-rule:nonzero;"/>
                <path d="M732.2,835C732.2,834.7 732.1,834.3 732.1,834C732.1,834.3 732.1,834.7 732.2,835Z" style="fill:rgb(255,151,0);fill-rule:nonzero;"/>
                <path d="M732.1,834C732.1,833.7 732.2,833.3 732.2,833C732.1,833.3 732.1,833.6 732.1,834Z" style="fill:rgb(255,151,0);fill-rule:nonzero;"/>
                <path d="M740.1,833.3C740,831 738.4,829.9 736.7,829.8C736.3,831.1 736.1,832.4 736.1,833.7C736.1,835 736.3,836.2 736.6,837.4C738.4,837 740,835.6 740.1,833.3Z" style="fill:rgb(255,151,0);fill-rule:nonzero;"/>
                <path d="M688.5,837.5C688.2,836.2 688.1,834.9 688.1,833.6C688.1,832.3 688.2,831.1 688.5,829.8C686.3,829.4 684,830.5 684.1,833.3C684,836.1 686.4,837.6 688.5,837.5Z" style="fill:rgb(255,151,0);fill-rule:nonzero;"/>
                <path d="M692.1,834C692,831.7 690.3,830.3 688.5,829.9C688.2,831.1 688.1,832.4 688.1,833.7C688.1,835 688.3,836.3 688.5,837.6C690.3,837.4 692,836.3 692.1,834Z" style="fill:rgb(255,151,0);fill-rule:nonzero;"/>
                <path d="M772.9,837.5C772.4,836.2 772.1,834.9 772.1,833.6C772.1,832.3 772.4,831 772.9,829.8C770.9,829.5 768.6,830.7 768.2,833.1C768,836 770.6,837.6 772.9,837.5Z" style="fill:rgb(255,151,0);fill-rule:nonzero;"/>
                <g>
                    <path d="M1151.3,804.7C1118.1,782.6 1073.3,775.9 1034.7,770.5C1031.2,770 1027.7,769.6 1024.2,769.1C1010.8,749.5 991.4,734 969,725.2C934.2,711.5 892.6,716.8 862,738.2C849.9,746.7 839.8,757.1 831.9,768.9C794.2,773.1 755.9,780.3 721.5,795.5C706.2,802.2 684.5,814 684,833.2C683.9,830.4 686.2,829.3 688.4,829.7C690.2,830 691.9,831.4 692,833.8C692.3,822 703.8,814.1 713,808.7C729.5,799 748.3,793.4 766.7,788.7C786.4,783.7 806.5,780 826.8,777.3C825,780.6 823.3,784 821.8,787.5C805.4,790.4 789.2,794.2 773.5,799.5C758.4,804.6 733.7,813.9 732.2,832.7C732.6,830.5 734.7,829.4 736.7,829.5C738.4,829.6 740,830.8 740.1,833C740.6,820.9 759,813.7 768,810C784.1,803.4 801.2,799.3 818.4,796.3C817.7,798.4 817.1,800.4 816.5,802.6C806.1,805.1 795.9,808.4 786.4,813C778.6,816.8 768.7,823 768.2,832.7L768.2,832.8C768.6,830.4 770.9,829.3 772.9,829.5C772.4,830.8 772.1,832 772.1,833.3C772.1,834.6 772.4,835.9 772.9,837.2C770.7,837.3 768.1,835.6 768.2,832.7C768.2,833 768.1,833.3 768.2,833.6C768.7,844.7 780.6,851 789.4,855C798.1,859 807.3,861.9 816.6,864.1C818,864.4 819.4,864.8 820.7,865.1C822.3,865.4 823.8,865.8 825.4,866.1C833.5,867.7 841.7,869 849.7,870.1C905.9,878.2 965.1,877.6 1021.1,867.8C1024.3,867.2 1027.4,866.6 1030.6,866C1032.2,865.7 1033.8,865.3 1035.5,865C1036.9,864.7 1038.2,864.4 1039.6,864.1C1051.5,861.3 1063.1,857.4 1073.7,851.6C1082,847 1089.9,839.4 1087.4,829.2C1084.6,818 1068.7,812.1 1059.4,808.6C1053.1,806.3 1046.7,804.4 1040.1,802.7C1039.5,800.6 1038.9,798.5 1038.2,796.4C1053,799.1 1067.6,802.6 1081.7,807.6C1093,811.6 1110.3,817.6 1115.3,829.8C1119.9,841 1103.1,849.8 1095.4,853.5C1077.4,862.3 1057.2,866.8 1037.6,870.4C1036.6,870.6 1035.6,870.8 1034.7,870.9C1034.3,871 1033.9,871 1033.5,871.1C1031.9,871.4 1030.2,871.6 1028.6,871.9C967.9,882 904.4,881.9 843.5,874.2C838.2,873.5 832.8,872.8 827.5,871.9C825.9,871.6 824.3,871.4 822.7,871.1C821.3,870.9 819.9,870.6 818.5,870.4C802.1,867.5 785.9,863.5 770.4,857.6C760.2,853.7 740.6,846.3 740.1,833C740,835.3 738.4,836.6 736.6,837.1C734.7,837.5 732.6,836.8 732.2,834.7C733.1,844.8 741.8,851.6 749.8,856.6C765,866.1 783.4,870.8 800.7,874.8C807.7,876.4 814.8,877.9 821.9,879.2C823.4,879.5 824.8,879.7 826.3,879.9C828,880.2 829.6,880.5 831.3,880.7C876.8,887.9 923.8,888.5 969.4,886.1C987.2,885.1 1005.9,883.8 1024.5,881.2C1026.2,881 1027.9,880.7 1029.6,880.5C1031.1,880.3 1032.5,880 1034,879.8C1057.9,875.9 1081.4,869.5 1102.3,858.9C1111.5,854.2 1121.8,846.9 1123.8,836.1C1125.7,826 1117.4,817.7 1109.9,812.5C1088.7,797.7 1060.6,791.9 1034.8,787.8C1033.3,784.3 1031.5,780.8 1029.6,777.4C1053,780.5 1076.2,784.9 1098.8,791.2C1115.9,796 1133.3,802 1148.1,811.9C1156.3,817.3 1166.1,826.3 1163.3,837.3C1160.4,848.6 1147.4,855.9 1138,860.8C1121.1,869.7 1102.3,875 1083.8,879.4C1065.8,883.7 1047.5,887 1029,889.4C1027.5,889.6 1025.9,889.8 1024.4,890C1022.6,890.2 1020.9,890.4 1019.1,890.6C986.4,894.3 953.3,895.5 920.6,895.3C892.7,895.1 864.4,893.8 836.5,890.6C834.8,890.4 833.1,890.2 831.4,890C829.9,889.8 828.3,889.6 826.8,889.4C805,886.5 783.4,882.5 762.2,877C745,872.5 727.6,866.7 712.1,857.6C703.6,852.6 692.4,844.6 692.1,833.7C692,836.1 690.3,837.2 688.5,837.3C686.3,837.4 684,835.9 684.1,833.1C684.8,859.3 720.2,871.8 740.4,878.8C769.8,888.9 800.9,894.7 832.2,898.3C842.6,913.8 856.8,926.8 873.9,936.1C911.2,956.2 959.1,953.2 993.8,928.9C1006,920.4 1016.1,909.9 1024,898C1037,896.4 1049.9,894.5 1062.8,892.1C1083.7,888.3 1104.6,883.1 1124.5,875.6C1137.9,870.5 1151.8,864 1162.2,853.8C1180,836.3 1169.3,816.6 1151.3,804.7ZM1021.1,779C1022.6,781.5 1023.9,784 1025.2,786.5C1025.9,787.9 1026.6,789.4 1027.2,790.9C1027.8,792.3 1028.4,793.7 1028.9,795.2C1029.6,797.1 1030.3,799 1030.9,801C1031.4,802.5 1031.8,804 1032.2,805.5C1032.6,806.9 1032.9,808.2 1033.2,809.6C1036.7,825.5 1036.5,842 1032.8,857.8C979.5,870.6 921,870.2 867,864.7C852.2,863.2 837.3,861.1 822.8,857.7C821,849.9 820,842 819.9,833.9C820,825.6 821,817.4 822.9,809.6C823.2,808.2 823.6,806.8 824,805.4C824.4,803.9 824.9,802.4 825.3,801C825.9,799.1 826.6,797.1 827.3,795.2C827.9,793.7 828.5,792.3 829.1,790.9C829.8,789.3 830.5,787.8 831.3,786.3C833,782.9 834.8,779.6 836.8,776.5C837.7,775.1 838.5,773.8 839.5,772.5C840.5,771 841.6,769.5 842.7,768.1C856.5,750.1 875.9,736.5 898.9,729.8C941.3,717.6 986.7,734.2 1013.3,768.1C1014.4,769.5 1015.5,771 1016.6,772.5C1017.5,773.8 1018.4,775.2 1019.3,776.5C1020,777.2 1020.6,778.1 1021.1,779ZM1051.7,814.7C1058.4,816.9 1083.5,824.5 1079.6,835.7C1075.4,847.9 1052.7,852.7 1041.6,855.6C1043.9,843.8 1044.5,831.4 1043.1,819C1042.8,816.6 1042.5,814.2 1042,811.8C1045.2,812.7 1048.5,813.6 1051.7,814.7ZM804.3,852.6C796.1,850 776.9,844.4 776.1,833.5C777.6,821.5 799.3,816.2 808.3,813.4C810.3,812.8 812.3,812.3 814.3,811.7C812.9,818.8 812.1,826 812,833.4C812.1,840.9 812.9,848.3 814.3,855.5C811,854.6 807.6,853.7 804.3,852.6ZM873.6,926.9C861.3,919.9 850.8,910.5 842.5,899.5C858.5,901 874.4,902 890.2,902.8C931.1,904.7 972.5,903.8 1013.4,899.4C1010.6,903.1 1007.6,906.6 1004.4,909.9C970.3,944.8 915.5,950.8 873.6,926.9Z" style="fill:rgb(255,151,0);fill-rule:nonzero;"/>
                </g>
            </g>
        </g>
    </g>
</svg>
