<?xml version="1.0" encoding="UTF-8" standalone="no"?>
<!DOCTYPE svg PUBLIC "-//W3C//DTD SVG 1.1//EN" "http://www.w3.org/Graphics/SVG/1.1/DTD/svg11.dtd">
<svg width="100%" height="100%" viewBox="0 0 2224 1668" version="1.1" xmlns="http://www.w3.org/2000/svg" xmlns:xlink="http://www.w3.org/1999/xlink" xml:space="preserve" xmlns:serif="http://www.serif.com/" style="fill-rule:evenodd;clip-rule:evenodd;stroke-linecap:round;stroke-linejoin:round;stroke-miterlimit:1.5;">
    <g transform="matrix(1.82265,0,0,1.82265,-740.678,-537.858)">
        <g transform="matrix(0.48334,0,0,0.561103,420.317,91.5591)">
            <path d="M1223.41,387.71C1181.7,383.171 1139.46,383.171 1097.75,387.71L1088.91,500.52C1054.72,506.4 1021.75,516.455 991.053,530.364L897.745,448.707C862.309,467.697 829.953,490.447 801.482,516.391L881.249,607.569C859.571,630.486 842.028,655.947 829.181,683.137L695.063,670.841C682.485,704.474 675.15,739.329 673.242,774.538L804.29,801.421C805.265,830.653 811.357,859.606 822.373,887.354L710.201,950.172C726.365,982.712 747.484,1013.36 773.032,1041.36L894.043,991.371C917.213,1013.24 944.091,1032.14 973.815,1047.46L936.075,1156C973.419,1172.22 1013.11,1184.32 1054.16,1192.01L1108.51,1088.54C1143.04,1092.81 1178.12,1092.81 1212.65,1088.54L1267,1192.01C1308.05,1184.32 1347.74,1172.22 1385.08,1156L1347.34,1047.46C1377.07,1032.14 1403.94,1013.24 1427.11,991.371L1548.12,1041.36C1573.67,1013.36 1594.79,982.712 1610.95,950.172L1498.78,887.354C1509.8,859.606 1515.89,830.653 1516.87,801.421L1647.91,774.538C1646.01,739.329 1638.67,704.474 1626.09,670.841L1491.98,683.137C1479.13,655.947 1461.59,630.486 1439.91,607.569L1519.67,516.391C1491.2,490.447 1458.85,467.697 1423.41,448.707L1330.1,530.364C1299.4,516.455 1266.43,506.4 1232.25,500.52L1223.41,387.71ZM1160.58,602.234C1286.28,602.234 1388.34,687.75 1388.34,793.082C1388.34,898.413 1286.28,983.929 1160.58,983.929C1034.87,983.929 932.818,898.413 932.818,793.082C932.818,687.75 1034.87,602.234 1160.58,602.234Z" style="fill:rgb(249,129,58);"/>
        </g>
        <g transform="matrix(0.48334,0,0,0.561103,690.43,418.24)">
            <path d="M1223.41,387.71C1181.7,383.171 1139.46,383.171 1097.75,387.71L1088.91,500.52C1054.72,506.4 1021.75,516.455 991.053,530.364L897.745,448.707C862.309,467.697 829.953,490.447 801.482,516.391L881.249,607.569C859.571,630.486 842.028,655.947 829.181,683.137L695.063,670.841C682.485,704.474 675.15,739.329 673.242,774.538L804.29,801.421C805.265,830.653 811.357,859.606 822.373,887.354L710.201,950.172C726.365,982.712 747.484,1013.36 773.032,1041.36L894.043,991.371C917.213,1013.24 944.091,1032.14 973.815,1047.46L936.075,1156C973.419,1172.22 1013.11,1184.32 1054.16,1192.01L1108.51,1088.54C1143.04,1092.81 1178.12,1092.81 1212.65,1088.54L1267,1192.01C1308.05,1184.32 1347.74,1172.22 1385.08,1156L1347.34,1047.46C1377.07,1032.14 1403.94,1013.24 1427.11,991.371L1548.12,1041.36C1573.67,1013.36 1594.79,982.712 1610.95,950.172L1498.78,887.354C1509.8,859.606 1515.89,830.653 1516.87,801.421L1647.91,774.538C1646.01,739.329 1638.67,704.474 1626.09,670.841L1491.98,683.137C1479.13,655.947 1461.59,630.486 1439.91,607.569L1519.67,516.391C1491.2,490.447 1458.85,467.697 1423.41,448.707L1330.1,530.364C1299.4,516.455 1266.43,506.4 1232.25,500.52L1223.41,387.71ZM1160.58,602.234C1286.28,602.234 1388.34,687.75 1388.34,793.082C1388.34,898.413 1286.28,983.929 1160.58,983.929C1034.87,983.929 932.818,898.413 932.818,793.082C932.818,687.75 1034.87,602.234 1160.58,602.234Z" style="fill:rgb(249,129,58);stroke:rgb(249,129,58);stroke-opacity:0;stroke-width:1.05px;"/>
        </g>
        <g transform="matrix(0.48334,0,0,0.561103,266.506,487.265)">
            <path d="M1223.41,387.71C1181.7,383.171 1139.46,383.171 1097.75,387.71L1088.91,500.52C1054.72,506.4 1021.75,516.455 991.053,530.364L897.745,448.707C862.309,467.697 829.953,490.447 801.482,516.391L881.249,607.569C859.571,630.486 842.028,655.947 829.181,683.137L695.063,670.841C682.485,704.474 675.15,739.329 673.242,774.538L804.29,801.421C805.265,830.653 811.357,859.606 822.373,887.354L710.201,950.172C726.365,982.712 747.484,1013.36 773.032,1041.36L894.043,991.371C917.213,1013.24 944.091,1032.14 973.815,1047.46L936.075,1156C973.419,1172.22 1013.11,1184.32 1054.16,1192.01L1108.51,1088.54C1143.04,1092.81 1178.12,1092.81 1212.65,1088.54L1267,1192.01C1308.05,1184.32 1347.74,1172.22 1385.08,1156L1347.34,1047.46C1377.07,1032.14 1403.94,1013.24 1427.11,991.371L1548.12,1041.36C1573.67,1013.36 1594.79,982.712 1610.95,950.172L1498.78,887.354C1509.8,859.606 1515.89,830.653 1516.87,801.421L1647.91,774.538C1646.01,739.329 1638.67,704.474 1626.09,670.841L1491.98,683.137C1479.13,655.947 1461.59,630.486 1439.91,607.569L1519.67,516.391C1491.2,490.447 1458.85,467.697 1423.41,448.707L1330.1,530.364C1299.4,516.455 1266.43,506.4 1232.25,500.52L1223.41,387.71ZM1160.58,602.234C1286.28,602.234 1388.34,687.75 1388.34,793.082C1388.34,898.413 1286.28,983.929 1160.58,983.929C1034.87,983.929 932.818,898.413 932.818,793.082C932.818,687.75 1034.87,602.234 1160.58,602.234Z" style="fill:rgb(249,129,58);"/>
        </g>
    </g>
</svg>
