<?xml version="1.0" encoding="UTF-8" standalone="no"?>
<!DOCTYPE svg PUBLIC "-//W3C//DTD SVG 1.1//EN" "http://www.w3.org/Graphics/SVG/1.1/DTD/svg11.dtd">
<svg width="100%" height="100%" viewBox="0 0 2224 1668" version="1.1" xmlns="http://www.w3.org/2000/svg" xmlns:xlink="http://www.w3.org/1999/xlink" xml:space="preserve" xmlns:serif="http://www.serif.com/" style="fill-rule:evenodd;clip-rule:evenodd;stroke-linejoin:round;stroke-miterlimit:2;">
    <g transform="matrix(1,0,0,1,42.8494,-188.258)">
        <g transform="matrix(413.937,0,0,413.937,103.427,945.963)">
            <path d="M0.285,-0.699L-0.012,-0.398L-0.012,-0.169L0.039,-0.17L0.039,-0.168L-0.012,-0.111L-0.012,-0.001L0.369,-0L0.48,-0.117L0.48,-0.472L0.416,-0.473L0.48,-0.535L0.48,-0.698L0.285,-0.699ZM0.152,-0.527L0.299,-0.672L0.452,-0.672L0.451,-0.561L0.355,-0.561L0.268,-0.473L0.268,-0.444L0.451,-0.443L0.451,-0.137L0.157,-0.139L0.157,-0.246L0.335,-0.25L0.335,-0.332L0.152,-0.332L0.152,-0.527Z" style="fill:rgb(249,129,58);fill-rule:nonzero;"/>
        </g>
        <g transform="matrix(413.937,0,0,413.937,299.279,945.963)">
            <path d="M0.106,-0.699L-0.034,-0.564L-0.034,-0.188L0.153,-0L0.374,-0L0.409,-0.031L0.445,-0L0.592,-0L0.702,-0.111L0.702,-0.7L0.538,-0.699L0.487,-0.656L0.487,-0.698L0.319,-0.699L0.276,-0.656L0.274,-0.699L0.106,-0.699ZM0.124,-0.672L0.248,-0.672L0.25,-0.346L0.339,-0.252L0.345,-0.252L0.345,-0.673L0.454,-0.672L0.458,-0.352L0.552,-0.252L0.559,-0.252L0.558,-0.673L0.674,-0.672L0.675,-0.139L0.515,-0.137L0.461,-0.182L0.462,-0.138L0.292,-0.137L0.128,-0.305L0.124,-0.672Z" style="fill:rgb(249,129,58);fill-rule:nonzero;"/>
        </g>
        <g transform="matrix(413.937,0,0,413.937,586.69,945.963)">
            <path d="M0.136,-0.701L-0.005,-0.564L-0.005,0.001L0.181,-0L0.302,-0.115L0.302,-0.701L0.136,-0.701ZM0.274,-0.139L0.158,-0.137L0.16,-0.67L0.271,-0.672L0.274,-0.139Z" style="fill:rgb(249,129,58);fill-rule:nonzero;"/>
        </g>
        <g transform="matrix(413.937,0,0,413.937,709.376,945.963)">
            <path d="M0.135,-0.699C0.039,-0.611 -0.009,-0.566 -0.01,-0.564L-0.01,0.001L0.176,-0L0.311,-0.117L0.311,-0.228L0.514,-0.43L0.514,-0.698L0.135,-0.699ZM0.484,-0.67L0.488,-0.443L0.371,-0.328L0.269,-0.328L0.27,-0.136L0.152,-0.132L0.152,-0.67L0.484,-0.67ZM0.268,-0.556L0.268,-0.45L0.336,-0.451L0.365,-0.49L0.365,-0.556L0.268,-0.556Z" style="fill:rgb(249,129,58);fill-rule:nonzero;"/>
        </g>
        <g transform="matrix(413.937,0,0,413.937,918.971,945.963)">
            <path d="M-0.01,-0.564L-0.01,-0.004C-0.01,-0.001 -0.008,-0 -0.006,-0L0.384,-0L0.504,-0.118L0.504,-0.277L0.4,-0.278L0.441,-0.323L0.441,-0.478L0.504,-0.539L0.505,-0.7L0.125,-0.7L-0.01,-0.564ZM0.477,-0.672L0.476,-0.563L0.272,-0.564L0.271,-0.461L0.415,-0.46L0.414,-0.351L0.271,-0.35L0.271,-0.255L0.476,-0.254L0.476,-0.137L0.153,-0.136L0.155,-0.672L0.477,-0.672Z" style="fill:rgb(249,129,58);fill-rule:nonzero;"/>
        </g>
        <g transform="matrix(413.937,0,0,413.937,1124.52,945.963)">
            <path d="M-0.005,-0.57L-0.005,-0.006C-0.003,-0.002 -0.001,-0 0.001,-0L0.37,-0L0.494,-0.124L0.494,-0.542L0.336,-0.7L0.127,-0.7L-0.005,-0.57ZM0.146,-0.672L0.324,-0.672L0.466,-0.519L0.466,-0.149L0.148,-0.15L0.146,-0.672ZM0.264,-0.26L0.35,-0.26L0.353,-0.477L0.264,-0.558L0.264,-0.26Z" style="fill:rgb(249,129,58);fill-rule:nonzero;"/>
        </g>
        <g transform="matrix(413.937,0,0,413.937,1325.03,945.963)">
            <path d="M-0.01,-0.398L-0.008,0.001L0.395,-0L0.516,-0.117L0.516,-0.698L0.295,-0.699L-0.01,-0.398ZM0.299,-0.67L0.486,-0.67L0.486,-0.134L0.154,-0.129L0.154,-0.525L0.299,-0.67ZM0.271,-0.475L0.271,-0.247L0.369,-0.247L0.369,-0.568L0.271,-0.475Z" style="fill:rgb(249,129,58);fill-rule:nonzero;"/>
        </g>
        <g transform="matrix(413.937,0,0,413.937,1534.62,945.963)">
            <path d="M0.106,-0.699L-0.034,-0.564L-0.034,-0.188L0.153,-0L0.374,-0L0.409,-0.031L0.445,-0L0.592,-0L0.702,-0.111L0.702,-0.7L0.538,-0.699L0.487,-0.656L0.487,-0.698L0.319,-0.699L0.276,-0.656L0.274,-0.699L0.106,-0.699ZM0.124,-0.672L0.248,-0.672L0.25,-0.346L0.339,-0.252L0.345,-0.252L0.345,-0.673L0.454,-0.672L0.458,-0.352L0.552,-0.252L0.559,-0.252L0.558,-0.673L0.674,-0.672L0.675,-0.139L0.515,-0.137L0.461,-0.182L0.462,-0.138L0.292,-0.137L0.128,-0.305L0.124,-0.672Z" style="fill:rgb(249,129,58);fill-rule:nonzero;"/>
        </g>
        <g transform="matrix(413.937,0,0,413.937,1822.03,945.963)">
            <path d="M-0.01,-0.555L-0.01,-0.001L0.172,-0L0.225,-0.043L0.254,-0L0.402,-0L0.531,-0.113L0.529,-0.701L0.367,-0.701L0.314,-0.656L0.283,-0.701L0.131,-0.701L-0.01,-0.555ZM0.26,-0.674L0.381,-0.443L0.382,-0.672L0.505,-0.672L0.504,-0.138L0.406,-0.137L0.275,-0.377L0.271,-0.377L0.272,-0.137L0.154,-0.136L0.154,-0.672L0.26,-0.674Z" style="fill:rgb(249,129,58);fill-rule:nonzero;"/>
        </g>
    </g>
    <path d="M134.769,880.49L1118.69,1283.15L2092.4,890.511L134.769,880.49ZM1118.9,1204.18L1720.02,961.776L511.466,955.59L1118.9,1204.18Z" style="fill:rgb(249,129,58);"/>
    <g id="Layer1">
    </g>
</svg>
